<?xml version="1.0" standalone="no"?>
<!DOCTYPE svg PUBLIC "-//W3C//DTD SVG 20010904//EN"
 "http://www.w3.org/TR/2001/REC-SVG-20010904/DTD/svg10.dtd">
<svg version="1.0" xmlns="http://www.w3.org/2000/svg"
 width="2286.000000pt" height="905.000000pt" viewBox="0 0 2286.000000 905.000000"
 preserveAspectRatio="xMidYMid meet">

<g transform="translate(0.000000,905.000000) scale(0.100000,-0.100000)"
fill="#000000" stroke="none">
<path d="M8705 8770 c-985 -36 -2072 -148 -3385 -351 -350 -54 -501 -83 -679
-129 -63 -17 -115 -30 -116 -30 -1 0 -5 14 -8 30 -4 17 -12 30 -18 30 -6 0
-51 -29 -100 -65 l-88 -65 -1006 0 -1005 0 0 -283 0 -284 -87 -12 c-145 -20
-141 -18 -118 -73 5 -12 -8 -27 -52 -58 -125 -91 -235 -214 -292 -327 -45 -88
-61 -163 -61 -285 l0 -108 -35 0 c-25 0 -35 4 -35 16 0 31 -32 84 -79 129 -83
82 -270 157 -463 186 -121 18 -383 16 -498 -5 -251 -46 -449 -150 -496 -262
-96 -229 265 -434 761 -434 278 0 548 72 679 181 47 39 96 114 96 146 0 19 5
23 34 23 23 0 36 -6 41 -17 13 -37 18 -319 6 -401 -34 -234 -353 -1219 -457
-1412 -19 -36 -72 -140 -117 -232 -62 -126 -86 -166 -97 -161 -61 23 -60 24
-60 -88 0 -57 -4 -108 -8 -114 -4 -6 -71 -11 -157 -12 -382 -4 -702 -119 -785
-283 -67 -131 53 -271 302 -353 144 -48 328 -77 489 -77 l86 0 23 -123 c103
-559 313 -1076 568 -1402 129 -166 233 -261 431 -394 374 -251 753 -445 1116
-570 370 -128 690 -186 1090 -198 440 -12 869 39 1705 202 789 155 1276 226
1850 272 210 17 426 18 3150 18 3081 0 3049 0 3554 -46 515 -47 853 -98 1821
-274 641 -117 914 -158 1260 -191 247 -23 712 -24 930 0 727 77 1407 319 2168
774 238 142 385 267 541 460 225 279 405 622 549 1042 28 82 35 94 52 91 52
-10 50 -14 46 107 l-3 112 278 0 279 1 33 29 32 30 0 325 0 325 -315 0 -315 0
7 116 6 115 -38 -3 -38 -3 -23 70 c-88 260 -263 635 -394 843 -155 247 -375
495 -559 631 -275 203 -602 338 -1076 444 -11 3 298 5 688 6 l707 1 0 -35 c0
-44 4 -44 125 0 l95 34 0 -174 0 -175 600 0 600 0 0 360 0 360 -600 0 -600 0
0 -175 c0 -96 -2 -175 -5 -175 -2 0 -47 16 -101 35 -53 19 -100 32 -105 29 -5
-3 -9 -18 -9 -35 l0 -29 -777 0 c-714 0 -790 2 -928 20 -82 11 -210 23 -284
26 l-133 7 -52 44 c-225 195 -847 293 -1461 232 -438 -43 -762 -174 -791 -318
-9 -44 2 -77 42 -121 20 -22 32 -40 26 -40 -5 0 -44 7 -87 16 -92 19 -103 16
-97 -25 2 -17 2 -31 -1 -31 -41 0 -1448 -232 -1824 -300 -149 -28 -276 -50
-282 -50 -7 0 -11 28 -11 75 l0 75 -1040 0 -1040 0 0 -60 c0 -33 -3 -60 -6
-60 -3 0 -46 24 -94 54 -87 54 -100 58 -100 27 -1 -43 -9 -43 -251 10 -129 28
-315 68 -413 90 -98 21 -181 40 -183 43 -2 2 27 7 64 10 263 27 650 111 933
203 l115 38 988 2 987 3 0 294 0 294 408 101 c1159 286 1795 441 1808 441 8 0
14 -8 14 -17 1 -50 16 -48 116 17 l98 63 114 -27 c546 -129 1386 -113 1867 35
172 53 304 137 321 204 l6 25 764 0 764 0 0 -35 c0 -44 4 -44 125 0 l95 34 0
-174 0 -175 1020 0 1020 0 0 360 0 360 -1020 0 -1020 0 0 -176 0 -175 -22 7
c-13 3 -59 19 -103 35 -43 15 -83 25 -87 23 -4 -3 -8 -18 -8 -35 l0 -29 -764
0 -764 0 -12 30 c-47 113 -291 213 -655 269 -224 34 -381 45 -670 44 -377 0
-666 -31 -912 -98 l-93 -25 -122 26 c-242 49 -707 133 -933 168 -475 74 -652
94 -1375 161 -272 25 -850 79 -1285 121 -1559 147 -2063 188 -2805 224 -285
14 -1216 20 -1505 10z m1515 -30 c723 -35 1238 -77 2900 -234 492 -47 1071
-101 1285 -121 813 -74 1223 -131 2005 -281 129 -25 245 -48 258 -51 20 -5 14
-10 -40 -32 -111 -48 -186 -106 -203 -161 -8 -25 -6 -25 -101 9 -133 48 -124
48 -124 7 l0 -36 -1120 0 -1120 0 0 175 0 175 -640 0 -640 0 0 -176 0 -175
-22 7 c-13 3 -59 19 -103 35 -43 15 -83 25 -87 23 -4 -3 -8 -18 -8 -35 l0 -29
-401 0 -402 0 -37 34 c-79 71 -330 135 -730 185 -1716 218 -4989 143 -5714
-129 -33 -13 -75 -37 -95 -55 -32 -30 -35 -36 -26 -61 31 -87 290 -160 795
-223 600 -75 1257 -110 2240 -118 1557 -13 2868 77 3375 232 83 25 171 74 181
100 5 13 60 15 410 15 l404 0 0 -35 c0 -44 4 -44 125 0 l95 34 0 -174 0 -175
640 0 640 0 0 175 0 175 1120 0 1120 0 0 -35 c0 -19 5 -35 10 -35 6 0 55 15
109 34 l98 34 17 -38 c20 -46 85 -96 188 -146 40 -19 64 -33 53 -30 -43 10
-150 11 -148 1 1 -6 4 -22 8 -35 l6 -25 -458 -112 c-252 -62 -741 -182 -1088
-268 -346 -85 -640 -157 -652 -160 -22 -5 -23 -2 -23 50 l0 55 -997 -2 -998
-3 -3 -172 c-1 -95 -4 -173 -6 -173 -2 0 -47 16 -100 35 -53 19 -99 35 -101
35 -3 0 -5 -16 -5 -35 l0 -35 -1023 0 -1022 0 -13 30 c-16 34 -78 80 -156 115
-391 173 -1422 250 -2262 170 -258 -25 -532 -71 -673 -115 l-65 -19 -100 55
c-104 57 -116 57 -116 6 0 -20 -4 -23 -27 -18 -16 3 -86 15 -158 26 -708 113
-1467 280 -1957 431 l-98 30 0 349 0 350 55 0 c58 0 61 3 45 44 -9 24 -7 26
43 40 187 53 342 84 707 140 1392 213 2393 318 3420 356 277 10 1218 4 1510
-10z m-5800 -910 l0 -340 -1050 0 -1050 0 0 340 0 340 1050 0 1050 0 0 -340z
m4560 330 c1150 -27 1963 -98 2410 -211 121 -30 217 -72 234 -101 67 -111
-493 -231 -1389 -297 -523 -39 -874 -51 -1635 -58 -1290 -10 -2347 45 -3018
157 -520 88 -646 185 -359 275 536 170 2174 272 3757 235z m4960 -330 l0 -340
-620 0 -620 0 0 340 0 340 620 0 620 0 0 -340z m4060 329 c619 -35 1050 -173
1050 -337 0 -29 -8 -44 -47 -80 -223 -214 -1143 -317 -1883 -211 -349 50 -614
150 -666 250 -118 230 689 427 1546 378z m4840 -329 l0 -340 -1000 0 -1000 0
0 340 0 340 1000 0 1000 0 0 -340z m-19487 -360 c607 0 1057 -4 1063 -9 12
-11 414 -129 599 -175 363 -91 945 -208 1445 -291 230 -38 212 -32 208 -68 -3
-36 5 -38 92 -23 l45 8 -60 -36 c-61 -37 -105 -80 -105 -103 0 -18 -3 -17
-110 22 -52 19 -98 35 -102 35 -5 0 -8 -16 -8 -35 l0 -35 -1130 0 -1130 0 -2
173 -3 172 -787 3 -788 2 0 -175 c0 -96 -1 -175 -3 -175 -2 0 -50 16 -107 35
-57 19 -105 35 -107 35 -2 0 -3 -16 -3 -35 l0 -35 -326 0 -326 0 4 133 c4 105
9 144 27 190 32 82 108 191 188 269 68 67 169 148 185 148 5 0 13 -11 18 -25
5 -14 14 -25 19 -25 5 0 40 33 78 74 l68 73 3 -63 3 -64 1052 0z m-2240 -405
c296 -52 487 -176 487 -315 0 -60 -21 -100 -80 -153 -278 -250 -1084 -249
-1353 2 -27 25 -56 60 -63 78 -30 71 -9 157 53 215 95 90 294 162 519 188 104
12 326 4 437 -15z m3027 -315 l0 -340 -770 0 -770 0 0 340 0 340 770 0 770 0
0 -340z m4747 320 c626 -45 1069 -156 1146 -287 17 -30 17 -35 3 -65 -60 -127
-471 -235 -1096 -290 -198 -17 -975 -17 -1180 0 -205 18 -487 56 -631 86 -242
51 -430 132 -463 199 -85 176 520 335 1414 371 144 6 650 -3 807 -14z m5413
-320 l0 -340 -980 0 -980 0 0 340 0 340 980 0 980 0 0 -340z m3845 -25 c345
-40 596 -124 695 -231 32 -35 40 -51 40 -81 0 -141 -253 -257 -700 -320 -178
-25 -691 -25 -870 0 -492 69 -764 214 -686 366 74 143 407 245 931 285 98 8
462 -4 590 -19z m4275 -315 l0 -340 -580 0 -580 0 0 340 0 340 580 0 580 0 0
-340z m-20060 295 c0 -21 5 -35 13 -35 6 0 56 16 110 35 l97 35 0 -175 0 -175
790 0 790 0 0 175 0 175 1130 0 1130 0 0 -35 c0 -19 3 -35 8 -35 4 0 52 14
106 32 77 26 100 30 104 20 12 -35 71 -85 136 -116 188 -90 503 -154 971 -196
191 -18 794 -24 1025 -11 276 16 582 49 730 80 21 4 59 1 100 -9 36 -9 382
-86 770 -171 798 -174 761 -157 379 -180 -286 -18 -1834 -18 -2464 -1 -1172
32 -1443 36 -2280 36 -1046 1 -1478 -15 -2115 -75 -975 -92 -1676 -279 -2100
-560 -112 -74 -317 -274 -399 -392 -30 -42 -56 -75 -58 -73 -2 2 6 28 17 57
85 215 243 702 319 984 58 214 65 271 57 473 l-6 172 320 0 320 0 0 -35z
m9750 0 c0 -19 4 -35 8 -35 5 0 48 14 97 30 49 17 92 30 97 30 4 0 8 -76 8
-168 l0 -169 -107 -33 c-283 -87 -639 -163 -918 -196 l-140 -16 -785 172
c-432 94 -786 173 -788 175 -2 2 16 6 40 10 63 11 256 73 309 101 60 30 106
69 125 105 l15 29 1019 0 1020 0 0 -35z m7110 -274 c51 -7 25 -9 -127 -10
-178 -1 -193 0 -193 17 0 16 9 17 128 9 70 -4 156 -12 192 -16z m453 -69 c359
-81 649 -193 892 -345 433 -269 794 -783 1047 -1487 26 -74 48 -135 48 -136 0
-1 -14 -7 -31 -13 -38 -13 -37 -17 35 -115 31 -41 56 -77 56 -80 0 -4 -80 -6
-178 -6 l-178 0 -17 -30 c-10 -16 -26 -30 -35 -30 -10 0 -49 32 -87 70 -38 39
-73 70 -77 70 -5 0 -14 -12 -20 -26 -15 -32 -12 -32 -198 44 -80 33 -191 74
-247 93 l-103 33 0 748 0 748 -2832 -2 -2833 -3 -3 -242 c-2 -186 -5 -243 -15
-243 -7 0 -128 20 -270 45 -142 25 -260 45 -263 45 -2 0 -4 80 -4 178 l0 178
343 62 c462 83 1735 292 1779 292 4 0 8 -10 8 -22 0 -49 12 -48 114 7 l100 53
57 -29 c122 -61 316 -112 554 -146 182 -25 683 -25 865 0 401 57 666 166 712
294 l13 35 315 -5 c309 -4 318 -5 453 -35z m-12258 -241 c204 -6 591 -16 860
-23 1027 -27 2375 -16 2769 22 l99 10 391 -86 c215 -47 422 -92 460 -101 l68
-15 -5 -35 -6 -36 67 6 c37 4 88 10 115 13 l47 7 0 -287 0 -286 1040 0 1040 0
0 86 0 86 28 -5 c15 -3 138 -25 275 -48 l247 -43 0 -503 0 -503 2858 -2 2857
-3 135 -51 c74 -28 181 -70 238 -94 91 -39 102 -47 97 -65 -15 -50 -16 -49 95
-60 l105 -10 3 -127 c1 -71 0 -128 -3 -128 -3 0 -51 16 -106 35 -56 19 -103
35 -105 35 -2 0 -4 -16 -4 -35 l0 -35 -835 0 -835 0 -9 23 c-20 50 -107 108
-231 152 -587 209 -1976 232 -2697 45 -690 -179 -430 -450 532 -554 356 -39
988 -46 1320 -16 606 54 984 157 1065 289 l25 40 833 1 832 0 0 -35 c0 -19 4
-35 8 -35 8 0 159 50 195 65 16 7 17 -3 17 -113 l0 -120 -27 -6 c-16 -3 -66
-8 -111 -12 -90 -7 -91 -8 -68 -64 5 -12 -37 -33 -187 -98 l-193 -82 -7605 -3
-7604 -2 -3 -757 -2 -758 7585 0 7585 0 2 742 3 742 135 56 c74 31 171 73 215
92 69 31 81 34 90 21 30 -45 27 -46 105 26 l75 69 3 -39 3 -39 210 0 c115 0
209 -3 209 -6 0 -3 -27 -43 -60 -90 -33 -46 -60 -86 -60 -88 0 -3 14 -7 30
-11 17 -4 30 -12 30 -19 0 -7 -15 -57 -34 -112 -119 -351 -296 -698 -485 -948
-202 -268 -380 -410 -816 -651 -1049 -580 -1956 -757 -3130 -610 -268 34 -518
76 -1175 195 -909 166 -1360 226 -2050 272 -283 19 -5963 19 -6220 0 -621 -46
-939 -91 -1830 -258 -623 -117 -801 -147 -1050 -178 -890 -113 -1563 -9 -2305
354 -306 150 -691 388 -850 527 -309 270 -562 744 -709 1330 -45 180 -91 402
-84 408 2 2 42 7 89 11 l85 6 34 -43 c197 -254 510 -564 677 -673 l33 -21 0
-532 0 -533 1530 0 1530 0 0 1840 0 1840 -1530 0 -1530 0 0 -619 c0 -405 -3
-620 -10 -623 -7 -2 -7 -14 -1 -35 11 -37 22 -32 -130 -64 l-106 -22 -69 42
c-81 49 -250 104 -384 126 -52 8 -98 15 -102 15 -13 0 24 84 54 123 18 22 27
44 24 55 -3 9 35 119 87 248 83 206 101 242 172 344 152 216 356 404 560 515
613 334 1654 507 3305 549 236 6 1805 -4 2175 -13z m6925 -451 l0 -340 -1020
0 -1020 0 0 340 0 340 1020 0 1020 0 0 -340z m6220 -525 c0 -404 -1 -735 -2
-735 -2 0 -32 9 -68 20 -108 34 -514 137 -690 175 -91 20 -169 37 -175 39 -5
1 68 15 163 30 316 50 511 108 584 174 66 60 42 113 -77 168 -489 226 -2438
322 -3986 197 l-206 -16 -95 51 c-53 29 -101 52 -107 52 -6 0 -11 -13 -11 -30
0 -17 -5 -30 -13 -30 -7 0 -218 36 -470 80 -252 44 -462 80 -468 80 -5 0 -9
96 -9 240 l0 240 2815 0 2815 0 0 -735z m-15680 -1505 l0 -1820 -1510 0 -1510
0 0 515 0 515 53 -32 c28 -17 53 -33 55 -34 2 -1 -4 -16 -13 -34 -9 -18 -15
-33 -13 -35 2 -2 33 -8 68 -13 38 -6 52 -10 33 -11 l-33 -1 0 -360 0 -360
1360 0 1360 0 0 360 0 360 -1274 0 -1273 0 -84 87 c-73 76 -84 84 -93 69 -29
-47 -28 -47 -88 -10 l-58 36 0 424 c0 233 3 424 8 424 4 -1 54 -11 112 -24
l105 -23 -2 -38 -3 -38 48 7 c26 3 77 9 115 13 l67 6 0 -287 0 -286 1060 0
1060 0 0 360 0 360 -1060 0 -1060 0 0 -60 c0 -33 -2 -60 -5 -60 -3 0 -45 25
-94 55 -49 30 -92 55 -95 55 -3 0 -8 -16 -12 -35 -5 -29 -10 -34 -28 -30 -67
15 -207 45 -211 45 -3 0 -5 76 -5 169 l0 169 90 56 c50 31 92 56 95 56 3 0 5
-13 5 -30 l0 -30 1320 0 1320 0 0 360 0 360 -1320 0 -1320 0 0 -316 0 -317
-81 8 c-45 3 -88 9 -95 12 -12 4 -14 107 -14 614 l0 609 1510 0 1510 0 0
-1820z m10524 1660 c253 -44 464 -80 468 -80 11 0 10 -21 -1 -39 -5 -8 -55
-21 -129 -32 -431 -66 -662 -150 -662 -243 0 -57 109 -118 299 -167 300 -78
715 -128 1411 -171 281 -17 1609 -18 1900 0 276 16 560 39 725 57 l130 15 190
-41 c188 -40 589 -140 715 -178 65 -19 61 -19 -2727 -20 l-2793 -1 0 490 c0
270 3 490 8 490 4 0 214 -36 466 -80z m2732 -60 c412 -9 653 -20 924 -41 734
-56 1247 -159 1316 -265 16 -24 16 -27 -2 -52 -96 -132 -735 -238 -1764 -294
-310 -16 -1430 -16 -1730 0 -801 45 -1302 108 -1592 202 -105 34 -150 58 -173
94 -22 32 -8 57 48 90 232 137 1082 242 2132 265 182 4 350 8 375 9 25 1 234
-3 466 -8z m-13466 -750 l0 -340 -1300 0 -1300 0 0 340 0 340 1300 0 1300 0 0
-340z m-3523 149 c-30 -73 -59 -135 -65 -137 -7 -2 -12 2 -12 8 0 16 122 271
127 266 2 -2 -20 -64 -50 -137z m-133 -323 c-3 -9 -10 -16 -15 -16 -6 0 -5 9
1 21 13 24 24 20 14 -5z m127 -51 c192 -31 378 -104 463 -183 34 -32 65 -96
66 -135 0 -42 -34 -100 -86 -146 -202 -178 -738 -245 -1151 -145 -179 43 -290
99 -366 183 -141 156 55 346 429 416 199 38 444 41 645 10z m16939 -105 c596
-29 1055 -116 1233 -234 147 -98 75 -197 -208 -285 -455 -142 -1367 -193
-2095 -115 -574 60 -939 189 -906 319 20 79 209 165 491 223 392 81 968 117
1485 92z m4240 -20 c-10 -20 -21 -20 -492 -20 -480 0 -481 0 -463 20 18 19 31
20 492 20 471 0 474 0 463 -20z m-20480 -190 c0 -110 -3 -200 -7 -200 -11 0
-208 42 -211 45 -2 2 10 22 27 45 51 70 53 135 5 205 -13 20 -26 42 -27 47 -1
8 145 49 206 57 4 1 7 -89 7 -199z m20510 -114 c0 -279 0 -294 -19 -317 l-20
-24 -1 298 c0 288 5 337 32 337 4 0 7 -132 8 -294z m-60 -41 l0 -305 -485 0
-485 0 0 298 c0 164 3 302 7 305 3 4 222 7 485 7 l478 0 0 -305z m-20557 -46
l107 -22 0 -419 0 -419 -46 32 c-146 100 -415 363 -583 569 l-94 115 64 13
c114 22 284 82 350 122 35 22 71 37 79 35 8 -2 63 -14 123 -26z m2675 -341 l2
-338 -1040 0 -1040 0 0 340 0 340 1038 -2 1037 -3 3 -337z m16122 -159 c-263
-104 -753 -278 -1213 -430 l-478 -158 -167 9 c-299 17 -1154 23 -1537 11
-1196 -39 -2006 -157 -2127 -310 l-23 -30 -98 35 c-55 19 -103 34 -108 34 -5
0 -9 -16 -9 -35 0 -32 -2 -35 -30 -35 l-30 0 0 175 0 175 -1390 0 -1390 0 0
-174 0 -175 -101 34 c-56 19 -106 32 -110 29 -5 -3 -9 -18 -9 -35 l0 -29 -338
0 -338 0 -22 29 c-128 173 -1105 301 -2427 317 -1480 19 -2753 -121 -2899
-318 -132 -180 639 -335 1924 -388 314 -13 1153 -13 1470 0 1085 44 1811 160
1928 307 l27 33 338 0 337 0 0 -35 c0 -44 4 -44 125 -1 l95 34 0 -174 0 -174
1390 0 1390 0 0 175 0 175 30 0 c28 0 30 -3 30 -35 0 -44 4 -44 122 -2 l93 34
24 -29 c121 -148 872 -265 1981 -308 333 -13 1189 -13 1511 0 1219 49 1999
184 1999 346 0 32 -36 72 -89 98 -177 90 -683 176 -1271 216 -166 12 -243 20
-225 25 199 57 1287 434 1583 549 79 31 145 56 148 56 2 0 4 -326 4 -725 l0
-725 -7565 0 -7565 0 0 740 0 740 7568 -1 7567 0 -125 -50z m-15820 -919 l0
-340 -1340 0 -1340 0 0 340 0 340 1340 0 1340 0 0 -340z m4090 330 c1148 -29
1967 -135 2171 -281 34 -24 39 -67 11 -92 -34 -31 -149 -77 -267 -106 -894
-224 -3218 -255 -4431 -61 -266 43 -483 104 -550 155 -45 34 -47 75 -4 105
206 146 1176 267 2275 283 88 2 219 3 290 5 72 1 299 -3 505 -8z m5890 -330
l0 -340 -1370 0 -1370 0 0 340 0 340 1370 0 1370 0 0 -340z m3515 330 c1068
-26 1808 -108 2150 -237 70 -27 125 -69 125 -96 0 -27 -65 -73 -141 -99 -588
-208 -2434 -298 -3924 -193 -728 52 -1254 148 -1372 250 -35 30 -37 34 -25 59
16 37 61 61 182 100 344 112 1114 193 2035 215 463 11 545 11 970 1z"/>
<path d="M3677 7923 c-4 -3 -7 -16 -7 -29 0 -17 -4 -21 -20 -17 -31 8 -60 -24
-60 -67 0 -58 19 -74 83 -71 l27 1 0 95 c0 87 -5 107 -23 88z m-9 -106 c4 -33
-13 -58 -34 -50 -14 5 -20 64 -7 77 15 15 38 0 41 -27z"/>
<path d="M2716 7908 c-3 -7 -16 -49 -30 -93 -30 -93 -30 -95 -12 -95 10 0 24
30 41 88 15 48 28 91 28 96 3 14 -23 19 -27 4z"/>
<path d="M3862 7882 c-8 -17 -9 -28 -2 -30 5 -2 10 -23 10 -46 0 -47 13 -66
47 -66 28 0 30 20 3 27 -16 4 -20 14 -20 44 0 32 3 39 20 39 11 0 20 5 20 11
0 6 -9 13 -20 16 -11 3 -20 12 -20 19 0 24 -24 15 -38 -14z"/>
<path d="M2761 7866 c-22 -27 -9 -59 27 -68 42 -11 37 -34 -7 -30 -38 3 -44
-23 -6 -30 34 -7 69 13 73 40 3 18 -4 26 -32 37 -44 19 -48 39 -6 33 24 -4 30
-1 28 11 -4 22 -61 27 -77 7z"/>
<path d="M2887 7867 c-10 -6 -20 -29 -23 -49 -5 -31 -2 -41 20 -63 21 -21 33
-25 54 -20 33 8 46 20 38 34 -5 8 -13 8 -27 1 -13 -8 -25 -7 -39 0 -30 16 -15
30 31 30 34 0 39 3 39 23 0 46 -55 72 -93 44z m60 -32 c2 -6 -8 -12 -22 -13
-17 -1 -25 3 -25 14 0 17 41 16 47 -1z"/>
<path d="M3004 7865 c-9 -22 1 -125 11 -126 6 0 11 11 13 23 9 75 13 88 32 88
23 0 35 -37 26 -80 -4 -22 -2 -30 8 -30 8 0 16 6 19 14 9 22 -1 97 -14 112
-14 17 -89 16 -95 -1z"/>
<path d="M3151 7866 c-22 -26 -9 -59 27 -70 41 -11 36 -32 -7 -28 -21 1 -31
-2 -31 -12 0 -32 81 -25 93 8 10 25 -2 44 -34 55 -39 13 -38 35 1 29 24 -4 30
-1 28 11 -4 22 -61 27 -77 7z"/>
<path d="M3270 7860 c-28 -28 -26 -75 5 -106 15 -15 32 -23 41 -20 9 3 19 6
23 6 12 0 31 48 31 75 0 30 -32 65 -60 65 -11 0 -29 -9 -40 -20z m66 -37 c8
-29 -6 -58 -26 -58 -20 0 -34 29 -26 58 4 18 13 27 26 27 13 0 22 -9 26 -27z"/>
<path d="M3395 7872 c-3 -3 -5 -34 -5 -69 0 -49 3 -63 15 -63 11 0 15 11 15
39 0 55 8 71 36 71 15 0 24 6 24 15 0 11 -10 14 -40 13 -22 -1 -42 -4 -45 -6z"/>
<path d="M3743 7873 c-7 -2 -13 -11 -13 -18 0 -10 9 -12 35 -8 23 4 35 2 35
-6 0 -6 -10 -11 -23 -11 -31 0 -47 -18 -47 -52 0 -34 24 -46 76 -40 34 4 34 5
34 53 0 70 -41 105 -97 82z m60 -69 c10 -10 -12 -44 -28 -44 -18 0 -20 36 -2
43 18 8 23 8 30 1z"/>
<path d="M3963 7873 c-7 -2 -13 -11 -13 -19 0 -12 8 -13 35 -8 23 4 35 2 35
-5 0 -6 -10 -11 -23 -11 -31 0 -47 -18 -47 -52 0 -34 28 -48 78 -41 31 5 32 7
32 52 0 74 -39 108 -97 84z m57 -93 c-6 -11 -17 -20 -25 -20 -8 0 -15 9 -15
20 0 15 7 20 25 20 23 0 24 -2 15 -20z"/>
<path d="M3450 7700 c0 -6 30 -10 70 -10 40 0 70 4 70 10 0 6 -30 10 -70 10
-40 0 -70 -4 -70 -10z"/>
<path d="M7297 7923 c-13 -12 -7 -33 8 -33 8 0 15 9 15 20 0 20 -11 26 -23 13z"/>
<path d="M6556 7908 c-3 -7 -16 -49 -30 -93 -30 -93 -30 -95 -12 -95 10 0 24
30 41 88 15 48 28 91 28 96 3 14 -23 19 -27 4z"/>
<path d="M7613 7910 c-29 -12 -32 -44 -3 -35 18 6 20 2 20 -48 0 -46 -3 -55
-20 -60 -41 -11 -20 -27 35 -27 55 0 76 16 35 27 -18 5 -20 14 -20 79 0 78 -3
82 -47 64z"/>
<path d="M7745 7906 c-13 -9 -20 -30 -23 -69 -4 -49 -2 -58 21 -81 50 -50 103
-2 95 86 -7 70 -47 98 -93 64z m61 -53 c8 -42 -5 -88 -26 -88 -21 0 -34 46
-26 88 5 27 12 37 26 37 14 0 21 -10 26 -37z"/>
<path d="M7860 7905 c0 -11 11 -15 40 -15 l39 0 -24 -65 c-29 -75 -30 -85 -12
-85 13 0 78 159 70 173 -2 4 -29 7 -59 7 -41 0 -54 -4 -54 -15z"/>
<path d="M8028 7862 c-21 -32 -38 -64 -38 -70 0 -7 16 -12 40 -12 33 0 40 -3
40 -20 0 -11 7 -20 15 -20 8 0 15 9 15 20 0 11 5 20 10 20 6 0 10 7 10 15 0 8
-4 15 -10 15 -5 0 -10 25 -10 55 0 75 -23 74 -72 -3z m42 -27 c0 -18 -5 -25
-20 -25 -20 0 -20 1 -4 25 9 14 18 25 20 25 2 0 4 -11 4 -25z"/>
<path d="M8165 7906 c-13 -9 -20 -30 -23 -69 -4 -50 -2 -58 21 -81 50 -50 101
-1 94 88 -6 68 -46 96 -92 62z m56 -40 c13 -27 4 -91 -13 -102 -26 -16 -50 64
-32 110 9 24 33 19 45 -8z"/>
<path d="M8421 7907 c-27 -13 -26 -33 2 -30 14 2 17 -6 17 -51 0 -45 -3 -54
-20 -59 -39 -10 -20 -27 29 -27 52 0 79 17 42 27 -18 4 -21 14 -23 76 -2 39
-7 72 -13 74 -5 1 -21 -3 -34 -10z"/>
<path d="M8551 7894 c-51 -65 -3 -187 62 -153 12 7 25 17 29 23 25 37 -14 102
-58 93 -20 -4 -22 -2 -13 16 9 15 17 18 41 13 24 -5 29 -3 26 12 -2 11 -14 18
-34 20 -25 2 -37 -3 -53 -24z m64 -85 c5 -14 1 -27 -10 -38 -15 -15 -17 -15
-30 2 -17 23 -8 57 15 57 10 0 22 -10 25 -21z"/>
<path d="M8696 7862 c-20 -33 -36 -65 -36 -71 0 -6 17 -11 40 -11 33 0 40 -3
40 -20 0 -11 7 -20 15 -20 8 0 15 9 15 20 0 11 5 20 10 20 6 0 10 7 10 15 0 8
-4 15 -9 15 -6 0 -11 24 -13 52 -4 76 -26 75 -72 0z m44 -27 c0 -18 -5 -25
-20 -25 -20 0 -20 1 -4 25 9 14 18 25 20 25 2 0 4 -11 4 -25z"/>
<path d="M8836 7863 c-46 -74 -46 -83 4 -83 33 0 40 -3 40 -20 0 -11 7 -20 15
-20 8 0 15 9 15 20 0 11 5 20 10 20 6 0 10 7 10 15 0 8 -4 15 -9 15 -6 0 -11
24 -13 52 -4 75 -26 75 -72 1z m44 -28 c0 -18 -5 -25 -20 -25 -20 0 -20 1 -4
25 9 14 18 25 20 25 2 0 4 -11 4 -25z"/>
<path d="M8977 7864 c-48 -73 -47 -84 3 -84 33 0 40 -3 40 -20 0 -11 7 -20 15
-20 8 0 15 9 15 20 0 11 5 20 10 20 6 0 10 7 10 15 0 8 -4 15 -9 15 -6 0 -11
24 -13 52 -4 74 -25 74 -71 2z m40 -51 c-3 -3 -13 -3 -21 -1 -15 3 -15 6 1 28
l18 25 3 -23 c2 -13 1 -26 -1 -29z"/>
<path d="M9111 7894 c-31 -39 -29 -107 4 -139 30 -31 40 -31 71 1 20 19 24 31
19 52 -8 34 -34 54 -62 49 -13 -2 -23 -1 -23 3 0 15 30 31 52 28 15 -2 23 2
23 12 0 9 -12 16 -31 18 -25 2 -37 -3 -53 -24z m64 -85 c5 -14 1 -27 -9 -37
-15 -15 -17 -15 -32 0 -20 20 -10 58 16 58 10 0 22 -10 25 -21z"/>
<path d="M9257 7866 c-48 -73 -48 -86 3 -86 33 0 40 -3 40 -20 0 -11 7 -20 15
-20 8 0 15 9 15 20 0 11 5 20 10 20 6 0 10 7 10 15 0 8 -4 15 -9 15 -6 0 -11
24 -13 52 -4 73 -25 74 -71 4z m39 -31 c-1 -17 -7 -25 -19 -25 -18 0 -17 9 6
38 13 17 15 15 13 -13z"/>
<path d="M9397 7866 c-48 -73 -48 -86 2 -86 30 0 38 -4 37 -16 -2 -24 23 -29
31 -7 3 10 11 21 17 25 6 4 6 11 -2 20 -6 7 -12 36 -14 63 -4 70 -25 70 -71 1z
m36 -36 c4 -15 0 -20 -14 -20 -17 0 -18 3 -9 20 6 11 12 20 14 20 2 0 6 -9 9
-20z"/>
<path d="M9515 7907 c-24 -18 -11 -41 15 -27 27 15 50 12 57 -6 4 -10 -10 -32
-41 -63 -63 -64 -61 -73 17 -69 68 3 85 21 24 26 l-38 3 35 40 c40 44 43 55
20 87 -17 25 -60 29 -89 9z"/>
<path d="M9667 7902 c-35 -39 -14 -102 33 -102 17 0 30 -4 30 -9 0 -17 -29
-33 -49 -26 -27 8 -36 -12 -10 -25 32 -18 76 4 89 46 29 87 -41 174 -93 116z
m61 -41 c4 -26 -13 -42 -35 -34 -14 5 -18 45 -6 57 14 14 38 0 41 -23z"/>
<path d="M9811 7911 c-22 -14 -26 -144 -6 -161 19 -16 61 -16 79 -1 20 17 19
136 -1 156 -16 17 -51 19 -72 6z m57 -44 c3 -12 -3 -17 -22 -17 -25 0 -35 18
-19 34 12 12 38 2 41 -17z m-3 -77 c0 -29 -32 -41 -41 -16 -9 24 4 48 23 44
12 -2 18 -12 18 -28z"/>
<path d="M9951 7911 c-10 -7 -16 -32 -18 -79 -3 -77 7 -94 52 -94 45 0 55 17
52 94 -3 72 -12 88 -52 88 -11 0 -27 -4 -34 -9z m57 -44 c3 -12 -3 -17 -22
-17 -25 0 -35 18 -19 34 12 12 38 2 41 -17z m-3 -77 c0 -29 -32 -41 -41 -16
-9 24 4 48 23 44 12 -2 18 -12 18 -28z"/>
<path d="M10096 7865 c-46 -71 -46 -85 -1 -85 28 0 35 -4 35 -20 0 -11 7 -20
15 -20 8 0 15 9 15 20 0 11 7 20 15 20 20 0 19 19 -1 27 -12 4 -15 18 -13 57
4 73 -19 74 -65 1z m34 -30 c0 -15 -6 -25 -15 -25 -12 0 -13 4 -3 25 6 14 13
25 15 25 1 0 3 -11 3 -25z"/>
<path d="M6931 7892 c-10 -19 0 -119 14 -142 8 -13 65 -13 65 0 0 6 -11 15
-25 20 -20 8 -25 16 -25 44 0 27 4 35 20 38 27 4 27 22 0 28 -12 3 -21 9 -20
15 3 18 -19 16 -29 -3z"/>
<path d="M6595 7872 c-3 -3 -5 -34 -5 -69 0 -49 3 -63 15 -63 9 0 15 9 15 24
0 58 12 86 36 86 15 0 24 6 24 15 0 11 -10 14 -40 13 -22 -1 -42 -4 -45 -6z"/>
<path d="M6696 7858 c-32 -45 -8 -128 37 -128 22 0 54 29 61 54 7 27 -8 76
-27 88 -23 15 -56 8 -71 -14z m68 -24 c9 -24 7 -38 -8 -59 -12 -16 -16 -17
-30 -6 -16 13 -22 62 -9 74 12 13 41 7 47 -9z"/>
<path d="M6826 7864 c-24 -24 -16 -47 22 -63 40 -18 36 -37 -7 -33 -21 1 -31
-2 -31 -12 0 -18 33 -26 68 -17 22 6 27 13 27 37 0 23 -6 32 -32 43 -18 8 -33
19 -33 24 0 4 15 7 33 5 23 -2 32 1 32 12 0 22 -58 25 -79 4z"/>
<path d="M7044 7872 c-39 -26 -40 -100 -1 -127 29 -20 43 -19 67 5 24 24 26
77 4 108 -15 22 -49 29 -70 14z m54 -55 c3 -27 -12 -57 -29 -57 -16 0 -30 39
-23 65 9 37 48 31 52 -8z"/>
<path d="M7155 7872 c-3 -3 -5 -45 -5 -94 0 -72 3 -88 15 -88 15 0 19 11 15
39 -1 9 5 12 19 8 33 -8 71 28 71 69 0 46 -29 74 -75 72 -19 -1 -37 -4 -40 -6z
m83 -58 c3 -31 -19 -61 -36 -50 -28 17 -15 90 15 84 12 -2 19 -14 21 -34z"/>
<path d="M7297 7873 c-4 -3 -7 -35 -7 -70 0 -49 3 -63 15 -63 12 0 15 14 15
70 0 64 -6 81 -23 63z"/>
<path d="M7365 7860 c-19 -21 -24 -77 -10 -100 12 -20 53 -30 80 -20 34 13 32
33 -2 26 -45 -10 -68 19 -52 63 8 19 15 22 40 19 33 -5 50 9 28 23 -24 15 -65
10 -84 -11z"/>
<path d="M7450 7700 c0 -6 28 -10 65 -10 37 0 65 4 65 10 0 6 -28 10 -65 10
-37 0 -65 -4 -65 -10z"/>
<path d="M8260 7700 c0 -6 28 -10 65 -10 37 0 65 4 65 10 0 6 -28 10 -65 10
-37 0 -65 -4 -65 -10z"/>
<path d="M13656 7923 c-3 -3 -6 -15 -6 -25 0 -13 -7 -18 -25 -18 -34 0 -65
-33 -65 -70 0 -36 43 -85 66 -76 9 3 24 6 35 6 17 0 19 8 19 89 0 83 -7 111
-24 94z m-16 -92 c12 -24 -4 -75 -22 -69 -20 7 -31 34 -24 61 8 32 31 35 46 8z"/>
<path d="M12985 7863 c-46 -147 -46 -145 -28 -141 12 2 26 30 44 88 32 99 33
110 16 110 -7 0 -22 -26 -32 -57z"/>
<path d="M13046 7864 c-24 -24 -16 -47 22 -63 40 -18 36 -37 -7 -33 -21 1 -31
-2 -31 -12 0 -16 35 -24 70 -16 20 5 25 12 25 35 0 24 -6 33 -32 44 -18 8 -33
19 -33 24 0 4 15 7 33 5 23 -2 32 1 32 12 0 22 -58 25 -79 4z"/>
<path d="M13167 7862 c-30 -33 -18 -112 18 -126 25 -9 65 12 75 40 27 71 -46
138 -93 86z m63 -31 c9 -18 -1 -71 -14 -71 -23 0 -36 16 -36 44 0 49 29 65 50
27z"/>
<path d="M13290 7823 c0 -33 5 -64 12 -71 7 -7 32 -12 55 -12 l44 0 -3 67 c-2
42 -8 68 -15 71 -9 2 -13 -11 -13 -46 0 -32 -5 -54 -15 -62 -23 -19 -33 -3
-37 54 -5 74 -28 73 -28 -1z"/>
<path d="M13430 7808 c0 -53 3 -68 14 -68 11 0 16 15 18 53 3 44 6 52 23 52
17 0 20 -8 23 -52 2 -38 7 -53 18 -53 20 0 19 88 -1 117 -12 17 -25 22 -55 20
l-40 -1 0 -68z"/>
<path d="M17516 7923 c-12 -12 -6 -33 9 -33 8 0 15 6 15 14 0 17 -14 28 -24
19z"/>
<path d="M17716 7918 c-3 -7 -6 -50 -8 -96 -3 -69 -1 -82 12 -80 12 3 15 22
17 91 1 48 -3 89 -8 93 -5 3 -11 -1 -13 -8z"/>
<path d="M18236 7923 c-3 -3 -6 -17 -6 -30 0 -15 -4 -22 -11 -18 -20 13 -57
-5 -68 -33 -25 -61 14 -115 77 -105 l32 5 0 89 c0 81 -7 109 -24 92z m-10
-100 c12 -48 -28 -82 -47 -40 -8 18 -8 30 0 46 16 29 39 26 47 -6z"/>
<path d="M17131 7903 c-11 -22 -51 -156 -51 -172 0 -6 6 -11 13 -11 11 0 67
159 67 190 0 16 -18 12 -29 -7z"/>
<path d="M17176 7864 c-24 -24 -16 -47 22 -63 40 -18 36 -37 -6 -33 -38 4 -43
-14 -7 -28 72 -27 105 48 35 82 -27 13 -31 18 -19 23 10 3 25 5 35 3 12 -2 19
3 19 12 0 22 -58 25 -79 4z"/>
<path d="M17297 7862 c-17 -19 -23 -78 -9 -98 24 -36 102 -38 102 -2 0 16 -3
17 -20 8 -25 -13 -60 -4 -60 16 0 10 13 14 45 14 36 0 45 3 45 18 0 53 -68 82
-103 44z m66 -27 c-3 -13 -53 -20 -53 -7 0 15 13 23 35 20 11 -2 19 -7 18 -13z"/>
<path d="M17425 7872 c-3 -3 -5 -34 -5 -69 0 -48 3 -63 14 -63 11 0 16 15 18
52 3 47 6 52 31 59 l27 7 0 -59 c0 -46 3 -59 15 -59 12 0 15 14 15 69 l0 69
-55 0 c-30 -1 -57 -3 -60 -6z"/>
<path d="M17583 7873 c-7 -2 -13 -11 -13 -18 0 -10 9 -12 35 -8 23 4 35 2 35
-6 0 -6 -11 -11 -24 -11 -49 0 -68 -72 -24 -89 10 -4 35 -5 55 -3 l35 4 -4 56
c-6 70 -40 98 -95 75z m57 -83 c0 -25 -27 -37 -43 -21 -9 10 -8 16 7 27 27 19
36 18 36 -6z"/>
<path d="M17878 7808 c-3 -59 -1 -68 14 -68 13 0 18 11 20 53 3 44 6 52 23 52
17 0 20 -8 23 -52 2 -38 7 -53 18 -53 20 0 19 88 -1 117 -12 17 -25 22 -54 20
l-40 -1 -3 -68z"/>
<path d="M18030 7860 c-23 -23 -27 -78 -7 -102 23 -30 55 -31 83 -3 22 22 25
32 20 63 -9 60 -57 81 -96 42z m64 -26 c9 -24 7 -38 -8 -59 -12 -16 -16 -17
-30 -6 -16 13 -22 62 -9 74 12 13 41 7 47 -9z"/>
<path d="M18308 7869 c-26 -15 -34 -74 -14 -104 13 -20 25 -25 56 -25 39 0 56
11 45 30 -4 7 -13 7 -26 0 -13 -8 -25 -7 -39 0 -30 16 -15 30 31 30 35 0 39 3
39 24 0 46 -49 70 -92 45z m60 -36 c2 -8 -6 -13 -22 -13 -17 0 -26 5 -26 16 0
19 41 16 48 -3z"/>
<path d="M17740 7700 c0 -6 30 -10 70 -10 40 0 70 4 70 10 0 6 -30 10 -70 10
-40 0 -70 -4 -70 -10z"/>
<path d="M21357 7923 c-4 -3 -7 -15 -7 -25 0 -12 -7 -18 -23 -18 -33 0 -57
-30 -57 -71 0 -57 19 -73 83 -70 l27 1 0 95 c0 87 -5 107 -23 88z m-9 -106 c4
-33 -13 -58 -34 -50 -14 5 -20 64 -7 77 15 15 38 0 41 -27z"/>
<path d="M21416 7923 c-12 -12 -6 -33 9 -33 8 0 15 6 15 14 0 17 -14 28 -24
19z"/>
<path d="M22217 7923 c-4 -3 -7 -12 -7 -20 0 -17 26 -17 33 1 8 21 -11 35 -26
19z"/>
<path d="M21237 7913 c-7 -12 -57 -173 -57 -184 0 -5 6 -9 13 -9 13 0 67 154
67 188 0 13 -16 17 -23 5z"/>
<path d="M22123 7885 c-6 -14 -7 -27 -2 -31 5 -3 9 -24 9 -48 0 -47 13 -66 47
-66 28 0 30 20 3 27 -16 4 -20 14 -20 44 0 32 3 39 20 39 11 0 20 7 20 15 0 8
-9 15 -20 15 -11 0 -20 7 -20 15 0 24 -24 17 -37 -10z"/>
<path d="M21417 7873 c-4 -3 -7 -35 -7 -70 0 -49 3 -63 15 -63 12 0 15 14 15
70 0 64 -6 81 -23 63z"/>
<path d="M21483 7873 c-7 -2 -13 -11 -13 -19 0 -12 8 -13 35 -8 23 4 35 2 35
-5 0 -6 -10 -11 -23 -11 -31 0 -47 -18 -47 -52 0 -34 24 -46 76 -40 33 4 34 5
34 51 0 74 -39 108 -97 84z m57 -94 c-13 -23 -33 -21 -38 4 -3 12 4 17 23 17
23 0 25 -2 15 -21z"/>
<path d="M21616 7858 c-35 -49 -8 -118 45 -118 20 0 28 -4 23 -11 -4 -7 -21
-9 -40 -6 -25 4 -34 2 -34 -8 0 -20 46 -30 75 -17 30 14 37 40 33 117 l-3 60
-42 3 c-34 2 -44 -2 -57 -20z m69 -28 c10 -33 -4 -62 -28 -58 -22 3 -34 35
-23 64 8 21 44 17 51 -6z"/>
<path d="M21740 7809 c0 -54 3 -69 14 -69 11 0 16 15 18 53 3 45 6 52 26 55
21 3 22 0 22 -52 0 -43 3 -56 15 -56 11 0 15 12 15 53 0 69 -10 81 -65 83
l-45 2 0 -69z"/>
<path d="M21895 7866 c-30 -21 -27 -92 4 -117 42 -34 91 -3 91 58 0 58 -52 91
-95 59z m63 -49 c3 -27 -12 -57 -29 -57 -15 0 -31 42 -24 67 9 36 49 28 53
-10z"/>
<path d="M22021 7866 c-22 -26 -9 -59 27 -70 41 -11 36 -32 -7 -28 -21 1 -31
-2 -31 -12 0 -32 81 -25 93 8 10 25 -2 44 -34 55 -39 13 -38 35 1 29 24 -4 30
-1 28 11 -4 22 -61 27 -77 7z"/>
<path d="M22217 7874 c-4 -4 -7 -36 -7 -71 0 -49 3 -63 15 -63 12 0 15 13 15
60 0 33 0 63 1 67 1 10 -16 15 -24 7z"/>
<path d="M22287 7862 c-21 -23 -22 -86 -2 -106 22 -22 52 -28 75 -16 30 16 25
33 -7 26 -40 -8 -55 5 -51 45 3 31 6 34 35 35 39 0 53 11 33 24 -24 16 -66 11
-83 -8z"/>
<path d="M22401 7866 c-20 -23 -9 -50 26 -66 40 -18 37 -36 -6 -32 -22 1 -31
-2 -31 -13 0 -11 11 -15 38 -15 69 0 87 51 27 76 -44 18 -46 38 -5 32 24 -4
30 -1 28 11 -4 22 -61 27 -77 7z"/>
<path d="M727 6843 c-13 -12 -7 -33 8 -33 8 0 15 9 15 20 0 20 -11 26 -23 13z"/>
<path d="M999 6818 c-1 -18 -2 -61 -4 -95 -2 -46 0 -63 10 -63 18 0 20 13 20
104 0 55 -4 81 -12 83 -9 3 -13 -7 -14 -29z"/>
<path d="M566 6832 c-8 -14 -56 -166 -56 -179 0 -7 6 -13 13 -13 12 0 67 155
67 188 0 14 -16 16 -24 4z"/>
<path d="M617 6788 c-27 -20 -33 -79 -10 -107 19 -24 68 -32 93 -16 17 11 -1
27 -23 21 -29 -7 -57 11 -57 37 0 37 15 50 49 45 25 -4 31 -1 29 11 -4 20 -57
26 -81 9z"/>
<path d="M727 6793 c-4 -3 -7 -35 -7 -70 0 -49 3 -63 15 -63 12 0 15 14 15 70
0 64 -6 81 -23 63z"/>
<path d="M785 6792 c-3 -3 -5 -34 -5 -69 0 -49 3 -63 15 -63 11 0 15 11 15 39
0 55 8 71 36 71 15 0 24 6 24 15 0 11 -10 14 -40 13 -22 -1 -42 -4 -45 -6z"/>
<path d="M888 6783 c-8 -10 -18 -26 -21 -36 -19 -52 36 -107 87 -87 35 13 34
33 -1 26 -45 -10 -68 19 -52 63 8 19 15 22 40 19 33 -5 50 9 28 23 -23 14 -65
10 -81 -8z"/>
<path d="M1067 6782 c-33 -36 -14 -119 26 -123 49 -5 85 10 73 30 -5 7 -14 7
-31 -1 -19 -8 -28 -8 -40 2 -26 21 -17 30 30 30 36 0 45 3 45 18 0 53 -68 82
-103 44z m65 -27 c-2 -10 -30 -15 -45 -7 -4 2 -5 8 -1 13 8 13 50 7 46 -6z"/>
<path d="M3386 6843 c-3 -3 -6 -16 -6 -28 0 -16 -6 -21 -26 -20 -40 0 -70 -44
-58 -87 11 -38 41 -56 84 -50 l30 4 0 89 c0 81 -7 109 -24 92z m-8 -106 c4
-33 -13 -58 -33 -50 -21 7 -28 39 -15 63 16 29 44 21 48 -13z"/>
<path d="M3820 6772 c0 -44 -3 -88 -6 -97 -5 -13 -2 -16 12 -13 17 3 19 13 19
92 0 62 -4 90 -12 93 -10 4 -13 -16 -13 -75z"/>
<path d="M2926 6828 c-3 -7 -16 -49 -30 -93 -30 -93 -31 -95 -11 -95 12 0 55
110 67 174 3 22 -20 35 -26 14z"/>
<path d="M2977 6782 c-17 -19 -23 -78 -9 -98 21 -32 90 -35 100 -5 3 10 -3 12
-24 7 -41 -8 -56 5 -52 45 3 31 6 34 35 35 39 0 53 11 33 24 -24 16 -66 11
-83 -8z"/>
<path d="M3090 6728 c0 -54 3 -68 15 -68 11 0 15 12 15 50 0 36 4 52 15 57 24
8 29 -2 27 -57 -1 -37 3 -50 14 -50 9 0 14 11 14 36 0 42 15 74 35 74 11 0 15
-13 15 -55 0 -42 3 -55 15 -55 19 0 22 112 3 128 -7 5 -48 9 -90 9 l-78 0 0
-69z"/>
<path d="M3540 6793 c0 -5 10 -36 22 -70 15 -41 28 -63 39 -63 10 0 23 22 37
63 26 72 26 77 9 77 -8 0 -20 -18 -27 -40 -7 -22 -16 -40 -20 -40 -4 0 -13 18
-20 40 -7 22 -19 40 -27 40 -7 0 -13 -3 -13 -7z"/>
<path d="M3697 6787 c-28 -19 -33 -78 -9 -106 20 -26 74 -33 93 -14 18 18 1
35 -21 23 -22 -12 -50 -3 -50 16 0 10 13 14 44 14 l45 0 -10 32 c-13 48 -54
63 -92 35z m56 -32 c-4 -16 -43 -14 -43 2 0 9 8 13 23 11 12 -2 21 -7 20 -13z"/>
<path d="M3410 6620 c0 -6 30 -10 70 -10 40 0 70 4 70 10 0 6 -30 10 -70 10
-40 0 -70 -4 -70 -10z"/>
<path d="M7966 6843 c-3 -3 -6 -46 -6 -95 0 -72 3 -88 15 -88 12 0 15 17 15
89 0 83 -7 111 -24 94z"/>
<path d="M8271 6836 c-9 -10 -9 -16 -1 -21 17 -10 37 12 24 25 -8 8 -15 6 -23
-4z"/>
<path d="M8820 6842 c-8 -2 -22 -13 -30 -24 -11 -12 -30 -19 -58 -21 l-42 -1
0 -68 c0 -53 3 -68 14 -68 11 0 16 15 18 53 3 48 5 52 31 55 27 3 27 2 27 -52
0 -43 3 -56 15 -56 12 0 15 13 15 55 0 41 4 55 14 55 26 0 28 20 4 30 l-23 9
23 7 c22 6 29 19 15 27 -5 2 -15 2 -23 -1z"/>
<path d="M7491 6743 c-16 -54 -28 -99 -26 -101 14 -14 34 15 49 72 21 76 39
82 44 15 4 -52 16 -69 48 -69 29 0 32 20 4 27 -16 4 -20 14 -20 44 0 32 3 39
20 39 11 0 20 7 20 15 0 8 -9 15 -20 15 -11 0 -20 7 -20 15 0 8 -7 15 -15 15
-8 0 -15 -6 -15 -14 0 -8 -5 -18 -10 -21 -7 -4 -9 2 -4 19 5 20 2 26 -9 26
-11 0 -25 -30 -46 -97z"/>
<path d="M7873 6815 c-5 -8 -26 -16 -48 -17 l-40 -3 -3 -68 c-2 -55 0 -67 13
-67 11 0 15 11 15 39 0 54 8 71 34 71 19 0 24 -8 32 -52 8 -50 11 -53 42 -56
38 -4 43 14 7 28 -20 8 -25 16 -25 44 0 27 4 35 20 38 29 4 30 22 3 26 -13 2
-23 10 -23 18 0 18 -17 18 -27 -1z"/>
<path d="M8462 6802 c-8 -17 -9 -28 -2 -30 5 -2 10 -23 10 -46 0 -47 13 -66
47 -66 28 0 30 20 3 27 -16 4 -20 14 -20 44 0 32 3 39 20 39 11 0 20 5 20 11
0 6 -9 13 -20 16 -11 3 -20 12 -20 19 0 24 -24 15 -38 -14z"/>
<path d="M7647 6793 c-10 -10 -8 -78 3 -107 8 -23 15 -26 55 -26 l45 0 0 60
c0 33 0 63 0 68 0 4 -6 7 -12 7 -8 0 -14 -19 -16 -52 -2 -36 -8 -53 -19 -57
-23 -9 -33 11 -33 67 0 44 -7 56 -23 40z"/>
<path d="M8038 6790 c-40 -24 -29 -113 17 -130 31 -12 75 3 75 25 0 18 -12 19
-27 4 -14 -14 -53 -2 -53 17 0 10 13 14 44 14 l45 0 -10 32 c-13 46 -50 62
-91 38z m62 -35 c0 -10 -9 -14 -25 -13 -25 2 -31 9 -18 21 12 13 43 7 43 -8z"/>
<path d="M8270 6798 c-1 -1 -2 -33 -3 -71 -2 -59 0 -67 16 -67 16 0 18 8 15
67 -2 42 -8 68 -15 71 -7 2 -13 2 -13 0z"/>
<path d="M8330 6728 c0 -53 3 -68 14 -68 11 0 16 15 18 53 3 44 6 52 23 52 17
0 20 -8 23 -52 2 -38 7 -53 18 -53 20 0 19 88 -2 118 -11 17 -24 21 -55 20
l-39 -1 0 -69z"/>
<path d="M8566 6781 c-21 -23 -24 -88 -4 -106 24 -24 98 -23 98 1 0 12 -6 15
-24 10 -30 -7 -56 2 -56 20 0 10 13 14 45 14 44 0 45 1 39 28 -12 51 -65 69
-98 33z m64 -21 c0 -5 -3 -10 -7 -11 -5 0 -16 -2 -25 -4 -18 -3 -24 6 -11 18
10 11 43 8 43 -3z"/>
<path d="M8862 6788 c-21 -21 -13 -29 22 -23 20 4 36 2 40 -4 5 -7 -3 -11 -21
-11 -34 0 -53 -16 -53 -45 0 -32 20 -45 67 -45 l43 0 0 53 c0 40 -5 58 -18 70
-22 20 -63 22 -80 5z m68 -72 c0 -18 -27 -39 -40 -31 -16 10 -12 33 8 38 29 8
32 7 32 -7z"/>
<path d="M9001 6781 c-39 -39 -20 -114 29 -121 37 -5 60 1 60 16 0 12 -6 15
-22 11 -30 -8 -58 9 -58 36 0 38 15 51 50 44 26 -6 31 -4 28 11 -5 26 -62 28
-87 3z"/>
<path d="M9134 6792 c-36 -23 -40 -96 -8 -123 17 -14 72 -15 86 -1 16 16 -1
36 -17 22 -17 -15 -55 -4 -55 16 0 10 13 14 46 14 38 0 45 3 40 16 -3 9 -6 19
-6 24 0 29 -58 51 -86 32z m56 -37 c0 -10 -9 -14 -25 -13 -25 2 -31 9 -18 21
12 13 43 7 43 -8z"/>
<path d="M8130 6620 c0 -6 28 -10 65 -10 37 0 65 4 65 10 0 6 -28 10 -65 10
-37 0 -65 -4 -65 -10z"/>
<path d="M12939 6828 c-7 -107 -4 -168 8 -168 8 0 13 13 13 33 0 51 11 77 31
77 22 0 34 -37 25 -80 -5 -26 -2 -30 15 -30 20 0 21 4 17 54 -5 65 -20 86 -59
86 -23 0 -28 4 -26 21 1 12 -4 24 -10 26 -8 3 -14 -5 -14 -19z"/>
<path d="M13347 6823 c-3 -15 -5 -58 -5 -95 0 -52 3 -68 14 -68 11 0 14 18 14
85 0 47 0 88 1 92 0 4 -4 9 -9 11 -6 2 -12 -10 -15 -25z"/>
<path d="M13936 6843 c-3 -3 -6 -17 -6 -30 0 -15 -4 -22 -11 -18 -37 24 -87
-36 -73 -89 9 -36 36 -53 78 -48 l36 4 0 89 c0 81 -7 109 -24 92z m-10 -100
c12 -48 -28 -82 -47 -40 -8 18 -8 30 0 46 16 29 39 26 47 -6z"/>
<path d="M12716 6828 c-3 -7 -16 -49 -30 -93 -30 -93 -31 -95 -11 -95 12 0 55
110 67 174 3 22 -20 35 -26 14z"/>
<path d="M12748 6795 c-3 -3 3 -33 12 -68 20 -72 44 -87 56 -35 l7 33 14 -32
c21 -51 39 -41 57 32 19 78 19 75 1 75 -8 0 -17 -14 -21 -36 -7 -38 -20 -35
-26 6 -5 41 -34 37 -45 -7 l-10 -38 -9 34 c-9 33 -24 48 -36 36z"/>
<path d="M13087 6782 c-20 -22 -22 -81 -4 -105 12 -17 32 -22 75 -19 15 2 22
8 22 22 0 18 -3 19 -20 10 -25 -13 -60 -4 -60 16 0 10 13 14 45 14 36 0 45 3
45 18 0 53 -68 82 -103 44z m61 -24 c-5 -13 -48 -21 -48 -8 0 12 13 20 33 20
10 0 17 -5 15 -12z"/>
<path d="M13227 6787 c-27 -19 -33 -78 -10 -106 21 -25 76 -32 95 -13 18 18
-1 32 -27 20 -19 -8 -28 -8 -40 2 -22 18 -9 30 36 30 35 0 39 3 39 24 0 48
-54 72 -93 43z m60 -33 c2 -6 -6 -11 -18 -10 -12 0 -24 7 -27 14 -3 9 3 13 19
10 12 -1 24 -8 26 -14z"/>
<path d="M13532 6784 c-17 -12 -22 -25 -22 -60 0 -41 3 -46 32 -58 34 -15 69
-8 76 14 3 9 -4 10 -24 6 -41 -8 -56 5 -52 45 3 31 6 34 35 35 39 0 53 11 33
24 -22 14 -53 12 -78 -6z"/>
<path d="M13640 6728 c0 -54 3 -68 15 -68 11 0 15 12 15 50 0 36 4 52 15 57
23 8 26 1 27 -56 0 -37 4 -51 14 -51 9 0 14 12 14 36 0 42 15 74 35 74 11 0
15 -13 15 -55 0 -42 3 -55 15 -55 12 0 15 13 15 58 0 32 -5 63 -12 70 -15 15
-55 16 -63 2 -5 -8 -11 -8 -19 -1 -7 6 -29 10 -49 9 l-37 -1 0 -69z"/>
<path d="M13380 6620 c0 -6 28 -10 65 -10 37 0 65 4 65 10 0 6 -28 10 -65 10
-37 0 -65 -4 -65 -10z"/>
<path d="M17486 6503 c-3 -3 -6 -16 -6 -28 0 -18 -5 -21 -23 -18 -44 9 -77
-49 -58 -100 12 -32 41 -45 82 -39 l29 4 0 89 c0 81 -7 109 -24 92z m-10 -100
c13 -52 -32 -81 -50 -31 -7 19 -6 31 4 42 19 24 39 19 46 -11z"/>
<path d="M17226 6488 c-3 -7 -14 -44 -26 -83 -11 -38 -23 -78 -26 -87 -3 -12
0 -18 10 -18 13 0 55 108 68 174 4 22 -20 35 -26 14z"/>
<path d="M18017 6469 c-6 -22 7 -122 18 -139 8 -12 52 -13 59 -1 3 4 -6 13
-19 19 -20 9 -25 19 -25 46 0 28 4 35 23 38 27 4 26 22 -3 26 -11 2 -20 10
-20 18 0 22 -27 17 -33 -7z"/>
<path d="M17276 6438 c-50 -71 20 -163 79 -104 27 27 31 55 14 89 -23 43 -68
50 -93 15z m68 -24 c9 -24 7 -38 -8 -59 -12 -16 -16 -17 -30 -6 -16 13 -22 62
-9 74 12 13 41 7 47 -9z"/>
<path d="M17555 6446 c-25 -18 -27 -89 -3 -112 22 -22 68 -21 85 2 18 24 16
75 -3 102 -17 25 -51 29 -79 8z m63 -49 c3 -27 -12 -57 -29 -57 -15 0 -31 42
-24 67 9 36 49 28 53 -10z"/>
<path d="M17675 6452 c-3 -3 -5 -34 -5 -69 0 -49 3 -63 15 -63 11 0 15 11 15
39 0 52 8 71 31 71 16 0 19 -8 19 -55 0 -41 4 -55 14 -55 11 0 16 15 18 53 3
45 6 52 26 55 21 3 22 0 22 -52 0 -43 3 -56 15 -56 11 0 15 12 15 51 0 81 -6
87 -100 86 -44 0 -82 -3 -85 -5z"/>
<path d="M17900 6440 c-44 -44 -11 -124 50 -122 36 1 56 14 46 31 -5 7 -14 7
-31 -1 -19 -8 -28 -8 -40 2 -22 18 -9 30 36 30 34 0 39 3 39 23 0 51 -63 74
-100 37z m67 -25 c2 -6 -8 -12 -22 -13 -17 -1 -25 3 -25 14 0 17 41 16 47 -1z"/>
<path d="M18110 6388 c0 -53 3 -68 14 -68 11 0 16 15 18 53 3 45 6 52 26 55
18 3 26 -5 42 -44 23 -52 23 -79 1 -79 -8 0 -16 -6 -18 -12 -3 -8 5 -13 20
-13 13 0 29 6 34 13 12 14 63 143 63 157 0 24 -23 6 -38 -30 -9 -22 -19 -40
-22 -40 -3 0 -13 18 -22 40 -16 40 -17 40 -67 38 l-51 -2 0 -68z"/>
<path d="M21799 6493 c-1 -10 -1 -21 0 -25 0 -5 -12 -8 -28 -8 -59 0 -84 -90
-37 -128 23 -18 85 -20 86 -3 6 105 3 175 -8 179 -6 2 -13 -5 -13 -15z m-11
-102 c4 -37 -14 -57 -35 -39 -14 11 -18 60 -6 72 17 16 38 -1 41 -33z"/>
<path d="M21541 6483 c-11 -22 -51 -156 -51 -172 0 -6 6 -11 13 -11 11 0 67
159 67 190 0 16 -18 12 -29 -7z"/>
<path d="M21603 6454 c-7 -3 -17 -20 -23 -38 -20 -62 21 -116 73 -97 27 10 37
29 37 70 0 52 -41 83 -87 65z m55 -63 c3 -31 -9 -50 -31 -51 -15 0 -27 51 -16
71 16 31 43 19 47 -20z"/>
<path d="M21866 6438 c-30 -42 -18 -104 21 -119 52 -19 93 35 73 97 -16 49
-67 61 -94 22z m65 -32 c8 -17 8 -29 0 -45 -22 -40 -51 -21 -51 33 0 42 34 50
51 12z"/>
<path d="M21990 6388 c0 -53 3 -68 14 -68 11 0 16 15 18 53 3 44 6 52 23 52
17 0 20 -8 23 -52 2 -38 7 -53 18 -53 10 0 14 13 14 50 0 36 4 52 15 57 24 8
29 -2 28 -57 0 -36 3 -50 13 -50 18 0 20 113 2 128 -7 5 -48 9 -90 9 l-78 -1
0 -68z"/>
<path d="M12747 5763 c-13 -12 -7 -33 8 -33 8 0 15 9 15 20 0 20 -11 26 -23
13z"/>
<path d="M12941 5756 c-9 -10 -9 -16 -1 -21 17 -10 37 12 24 25 -8 8 -15 6
-23 -4z"/>
<path d="M12677 5671 c-31 -103 -32 -111 -14 -111 8 0 24 35 40 89 31 103 32
111 14 111 -8 0 -24 -35 -40 -89z"/>
<path d="M13132 5722 c-8 -17 -9 -28 -2 -30 5 -2 10 -23 10 -46 0 -47 13 -66
47 -66 28 0 30 20 3 27 -16 4 -20 14 -20 44 0 32 3 39 20 39 11 0 20 5 20 11
0 6 -9 13 -20 16 -11 3 -20 12 -20 19 0 24 -24 15 -38 -14z"/>
<path d="M13443 5725 c-6 -14 -7 -27 -2 -31 5 -3 9 -24 9 -48 0 -47 13 -66 47
-66 28 0 30 20 3 27 -16 4 -20 14 -20 44 0 32 3 39 20 39 11 0 20 5 20 11 0 6
-9 13 -20 16 -11 3 -20 12 -20 19 0 23 -24 16 -37 -11z"/>
<path d="M13663 5725 c-6 -14 -7 -27 -2 -31 5 -3 9 -24 9 -48 0 -47 13 -66 47
-66 28 0 30 20 3 27 -16 4 -20 14 -20 44 0 32 3 39 20 39 11 0 20 7 20 15 0 8
-9 15 -20 15 -11 0 -20 7 -20 15 0 24 -24 17 -37 -10z"/>
<path d="M12747 5713 c-4 -3 -7 -39 -7 -80 0 -58 -3 -73 -15 -73 -8 0 -15 -7
-15 -15 0 -18 14 -19 41 -5 16 9 19 22 19 95 0 78 -5 96 -23 78z"/>
<path d="M12816 5704 c-23 -23 -21 -89 4 -114 11 -11 27 -20 35 -20 48 0 75
98 37 133 -23 21 -56 22 -76 1z m59 -59 c0 -33 -3 -40 -20 -40 -15 0 -21 8
-23 28 -5 39 5 59 25 55 14 -2 18 -13 18 -43z"/>
<path d="M12938 5651 c-3 -63 -1 -71 15 -71 16 0 18 8 15 67 -4 93 -25 96 -30
4z"/>
<path d="M13000 5649 c0 -54 3 -69 14 -69 11 0 16 15 18 53 3 44 6 52 23 52
17 0 20 -8 23 -52 2 -38 7 -53 18 -53 10 0 14 13 14 53 0 69 -10 81 -65 83
l-45 2 0 -69z"/>
<path d="M13341 5706 c-22 -26 -9 -59 27 -70 43 -12 35 -32 -13 -28 -27 2 -36
0 -33 -10 3 -7 23 -14 46 -16 32 -2 43 1 51 17 15 27 5 48 -30 60 -39 13 -38
35 1 29 24 -4 30 -1 28 11 -4 22 -61 27 -77 7z"/>
<path d="M13543 5713 c-7 -2 -13 -11 -13 -19 0 -12 8 -13 35 -8 23 4 35 2 35
-5 0 -6 -10 -11 -23 -11 -31 0 -47 -18 -47 -52 0 -34 24 -46 76 -40 34 4 34 4
34 57 0 38 -5 56 -18 68 -18 16 -54 21 -79 10z m60 -69 c8 -9 -11 -44 -24 -44
-16 0 -23 31 -8 41 17 10 24 11 32 3z"/>
<path d="M13767 5702 c-20 -22 -22 -81 -4 -105 12 -17 32 -22 75 -19 15 2 22
8 22 22 0 18 -3 19 -20 10 -25 -13 -60 -4 -60 16 0 10 13 14 45 14 36 0 45 3
45 18 0 53 -68 82 -103 44z m66 -27 c-2 -5 -14 -11 -28 -12 -25 -2 -32 7 -18
21 10 10 48 3 46 -9z"/>
<path d="M13896 5704 c-24 -24 -16 -47 22 -63 40 -18 36 -37 -6 -33 -23 2 -32
-1 -32 -11 0 -17 35 -26 70 -17 20 5 25 12 25 35 0 24 -6 33 -32 44 -18 8 -33
19 -33 24 0 4 15 7 33 5 23 -2 32 1 32 12 0 22 -58 25 -79 4z"/>
<path d="M13242 5552 c-30 -2 -50 -7 -47 -13 8 -11 135 -12 135 0 0 12 -27 16
-88 13z"/>
<path d="M17926 5753 c-3 -3 -6 -16 -6 -28 0 -18 -5 -21 -23 -18 -44 9 -77
-49 -58 -100 12 -32 41 -45 82 -39 l29 4 0 89 c0 81 -7 109 -24 92z m-8 -106
c4 -32 -13 -58 -33 -51 -18 7 -26 44 -14 66 15 28 43 18 47 -15z"/>
<path d="M17575 5738 c-13 -38 -55 -174 -55 -180 0 -5 7 -8 15 -8 9 0 23 29
41 88 14 48 27 91 28 96 2 14 -24 19 -29 4z"/>
<path d="M17619 5706 c0 -1 -2 -31 -4 -68 -2 -54 0 -68 11 -68 8 0 15 8 15 18
1 9 3 26 4 37 1 11 3 28 3 38 1 11 10 17 27 17 16 0 25 6 25 15 0 11 -10 14
-40 13 -22 -1 -40 -2 -41 -2z"/>
<path d="M17717 5692 c-21 -23 -22 -81 -3 -107 23 -32 122 -19 102 14 -5 8
-13 8 -27 1 -13 -8 -25 -7 -39 0 -33 18 -23 30 25 30 36 0 45 3 45 18 0 53
-68 82 -103 44z m66 -27 c-2 -5 -14 -10 -28 -10 -25 -1 -31 6 -18 19 10 10 48
3 46 -9z"/>
<path d="M3486 5333 c-12 -12 -6 -33 9 -33 8 0 15 6 15 14 0 17 -14 28 -24 19z"/>
<path d="M3024 5243 c-15 -49 -29 -94 -32 -102 -3 -8 1 -12 12 -10 12 3 27 32
47 94 34 105 34 105 14 105 -9 0 -23 -29 -41 -87z"/>
<path d="M3090 5218 c0 -53 3 -68 14 -68 11 0 16 15 18 53 3 44 6 52 23 52 17
0 20 -8 23 -52 2 -38 7 -53 18 -53 10 0 14 13 14 53 0 65 -19 87 -73 85 l-37
-1 0 -69z"/>
<path d="M3229 5278 c-3 -43 4 -105 14 -116 6 -8 26 -12 51 -10 l41 3 0 64 c0
43 -4 66 -12 69 -9 2 -13 -10 -13 -41 0 -29 -6 -52 -16 -62 -24 -24 -38 -4
-39 52 0 28 -5 48 -12 50 -7 3 -13 -1 -14 -9z"/>
<path d="M3370 5275 c-19 -23 -8 -49 28 -64 40 -18 36 -37 -7 -33 -37 3 -44
-23 -8 -30 73 -14 108 65 37 82 -13 3 -26 12 -28 19 -3 10 4 12 27 9 25 -4 31
-1 31 14 0 14 -8 18 -34 18 -18 0 -39 -7 -46 -15z"/>
<path d="M3480 5220 c0 -56 3 -70 15 -70 12 0 15 14 15 70 0 56 -3 70 -15 70
-12 0 -15 -14 -15 -70z"/>
<path d="M3540 5219 c0 -54 3 -69 14 -69 11 0 16 15 18 53 3 45 6 52 26 55 21
3 22 0 22 -52 0 -42 4 -56 14 -56 11 0 16 15 18 53 3 44 6 52 23 52 17 0 20
-8 23 -52 2 -40 7 -53 19 -53 13 0 15 10 11 60 -2 33 -8 63 -12 67 -4 4 -45 9
-92 10 l-84 1 0 -69z"/>
<path d="M16697 5004 c-4 -4 -7 -16 -7 -26 0 -12 -7 -18 -22 -18 -31 0 -45
-11 -57 -43 -13 -34 8 -92 36 -100 21 -6 60 -3 68 5 11 11 10 181 -1 185 -5 2
-13 0 -17 -3z m-12 -114 c0 -28 -4 -35 -20 -35 -13 0 -21 8 -23 23 -5 34 5 54
25 50 13 -2 18 -13 18 -38z"/>
<path d="M17054 4997 c-3 -8 -4 -51 -2 -97 l3 -83 34 -2 c25 -2 40 4 57 21 45
44 21 124 -37 124 -24 0 -29 4 -29 25 0 26 -17 34 -26 12z m75 -85 c14 -26 2
-62 -19 -62 -24 0 -34 33 -20 60 13 25 26 26 39 2z"/>
<path d="M18467 4993 c-3 -10 -5 -52 -6 -94 l-1 -76 37 -6 c44 -8 67 4 82 41
9 21 9 36 1 57 -13 34 -26 45 -57 45 -14 0 -23 7 -25 22 -4 27 -25 35 -31 11z
m78 -103 c0 -28 -4 -35 -20 -35 -13 0 -21 8 -23 23 -5 34 5 54 25 50 13 -2 18
-13 18 -38z"/>
<path d="M18607 5004 c-10 -10 -9 -182 1 -188 4 -2 14 -1 20 3 9 5 12 34 10
96 -3 81 -12 108 -31 89z"/>
<path d="M18665 5001 c-8 -15 3 -31 21 -31 9 0 14 7 12 17 -4 20 -24 28 -33
14z"/>
<path d="M18844 4997 c-9 -24 1 -177 11 -180 6 -1 11 14 13 33 5 63 11 80 32
80 18 0 20 -7 20 -54 0 -58 10 -75 30 -51 15 18 8 98 -10 120 -7 8 -25 15 -41
15 -24 0 -29 4 -29 25 0 26 -17 34 -26 12z"/>
<path d="M16345 4988 c-30 -91 -55 -182 -51 -186 16 -15 35 16 59 94 15 49 27
92 27 97 0 12 -30 8 -35 -5z"/>
<path d="M16785 4988 c-25 -70 -55 -181 -51 -185 16 -16 35 15 59 94 15 50 27
93 27 96 0 12 -31 7 -35 -5z"/>
<path d="M17640 4990 c-11 -7 -14 -25 -13 -64 4 -81 16 -106 53 -106 34 0 41
19 10 27 -16 4 -20 14 -20 44 0 32 3 39 20 39 11 0 20 7 20 15 0 8 -9 15 -20
15 -11 0 -20 6 -20 14 0 20 -13 27 -30 16z"/>
<path d="M17861 4986 c-6 -7 -8 -16 -4 -19 3 -4 1 -7 -6 -7 -9 0 -11 -8 -6
-27 4 -16 9 -41 12 -58 7 -50 11 -55 43 -55 20 0 30 5 30 15 0 8 -9 15 -20 15
-17 0 -20 7 -20 40 0 33 3 40 20 40 11 0 20 7 20 15 0 8 -9 15 -20 15 -11 0
-20 6 -20 14 0 21 -16 28 -29 12z"/>
<path d="M17317 4969 c-6 -22 7 -122 18 -139 8 -14 65 -13 65 1 0 6 -9 13 -20
16 -16 4 -20 14 -20 44 0 32 3 39 20 39 11 0 20 7 20 15 0 8 -9 15 -20 15 -11
0 -20 7 -20 15 0 23 -37 18 -43 -6z"/>
<path d="M16390 4891 c0 -55 3 -71 14 -71 11 0 16 15 18 52 3 45 6 53 26 58
39 9 30 25 -15 28 l-43 3 0 -70z"/>
<path d="M16486 4938 c-46 -65 7 -145 78 -118 40 15 27 35 -18 32 -28 -3 -37
0 -34 9 3 8 20 14 39 14 29 0 34 4 37 26 6 55 -71 82 -102 37z m69 -18 c4 -6
-5 -10 -20 -10 -15 0 -24 4 -20 10 3 6 12 10 20 10 8 0 17 -4 20 -10z"/>
<path d="M16829 4958 c-1 -2 -3 -33 -4 -70 -3 -61 -2 -68 15 -68 16 0 19 9 22
53 3 45 6 52 26 55 40 6 26 32 -18 32 -22 0 -40 -1 -41 -2z"/>
<path d="M16926 4938 c-34 -49 -7 -128 44 -128 31 0 60 36 60 73 0 45 -25 77
-60 77 -18 0 -34 -8 -44 -22z m69 -28 c9 -29 -4 -60 -25 -60 -21 0 -34 31 -25
60 3 11 15 20 25 20 10 0 22 -9 25 -20z"/>
<path d="M17201 4946 c-7 -8 -14 -30 -18 -48 -7 -48 31 -94 70 -84 73 18 61
146 -13 146 -15 0 -33 -6 -39 -14z m64 -56 c0 -29 -4 -36 -22 -38 -20 -3 -23
1 -23 31 0 38 7 49 30 45 10 -2 15 -15 15 -38z"/>
<path d="M17518 4934 c-11 -23 -10 -29 11 -45 13 -11 29 -19 37 -19 8 0 14 -5
14 -11 0 -6 -14 -9 -32 -7 -37 4 -48 -16 -18 -32 28 -15 66 -5 80 19 14 27 4
47 -31 61 -38 16 -38 34 1 27 25 -6 30 -3 30 13 0 17 -7 20 -40 20 -34 0 -42
-4 -52 -26z"/>
<path d="M17727 4953 c-4 -3 -7 -13 -7 -20 0 -10 10 -12 38 -8 l37 5 -31 -14
c-41 -19 -57 -41 -49 -66 9 -28 36 -40 79 -33 l36 6 0 53 c0 34 -5 58 -16 68
-15 16 -75 22 -87 9z m61 -85 c-7 -19 -38 -22 -38 -4 0 10 9 16 21 16 12 0 19
-5 17 -12z"/>
<path d="M17958 4950 c-38 -23 -30 -108 12 -130 30 -16 80 -3 80 20 0 16 -6
18 -34 13 -19 -3 -36 -1 -40 6 -5 7 3 11 21 12 53 2 58 4 61 22 2 10 -4 29
-12 42 -17 26 -57 33 -88 15z m62 -30 c0 -5 -12 -10 -26 -10 -14 0 -23 4 -19
10 3 6 15 10 26 10 10 0 19 -4 19 -10z"/>
<path d="M18190 4878 l0 -83 -67 0 c-54 0 -68 -3 -68 -15 0 -18 58 -25 123
-15 36 5 42 10 42 30 0 18 4 23 15 19 43 -17 89 61 64 108 -17 32 -28 38 -71
38 l-38 0 0 -82z m75 12 c0 -25 -5 -36 -18 -38 -21 -4 -31 19 -23 54 10 40 41
28 41 -16z"/>
<path d="M18327 4953 c-22 -21 4 -132 31 -134 18 -2 62 -2 75 0 4 1 7 33 7 71
0 56 -3 70 -15 70 -9 0 -15 -10 -16 -22 -1 -13 -2 -30 -3 -38 -2 -8 -3 -23 -4
-32 -1 -11 -10 -18 -22 -18 -18 0 -20 7 -20 55 0 39 -4 55 -13 55 -8 0 -17 -3
-20 -7z"/>
<path d="M18666 4944 c-3 -9 -6 -40 -6 -70 0 -47 2 -54 20 -54 18 0 20 7 20
70 0 53 -3 70 -14 70 -8 0 -17 -7 -20 -16z"/>
<path d="M18731 4946 c-20 -23 -9 -50 26 -66 42 -19 42 -32 1 -28 -24 2 -34
-1 -36 -13 -4 -22 38 -32 73 -19 39 15 32 60 -12 79 -18 8 -33 19 -33 24 0 4
15 7 33 5 23 -2 32 1 32 12 0 21 -68 26 -84 6z"/>
<path d="M18991 4947 c-32 -39 -21 -105 20 -127 29 -16 79 -3 79 20 0 15 -6
17 -40 13 -26 -4 -40 -2 -40 6 0 6 15 11 33 11 45 0 61 12 52 41 -4 13 -12 30
-17 37 -14 16 -73 15 -87 -1z m64 -27 c4 -6 -5 -10 -20 -10 -15 0 -24 4 -20
10 3 6 12 10 20 10 8 0 17 -4 20 -10z"/>
<path d="M19119 4958 c-1 -2 -2 -33 -4 -70 -3 -61 -1 -68 15 -68 16 0 19 9 22
53 3 45 6 52 26 55 40 6 26 32 -18 32 -22 0 -40 -1 -41 -2z"/>
<path d="M17385 4790 c-13 -21 12 -31 71 -28 44 2 59 7 59 18 0 19 -119 28
-130 10z"/>
<path d="M2956 4575 c-3 -9 1 -18 10 -22 19 -7 28 2 21 22 -8 19 -23 19 -31 0z"/>
<path d="M3397 4583 c-4 -3 -7 -12 -7 -20 0 -17 26 -17 33 1 8 21 -11 35 -26
19z"/>
<path d="M2525 4568 c-23 -62 -55 -164 -55 -175 0 -7 7 -13 15 -13 12 0 27 37
71 183 6 20 -24 25 -31 5z"/>
<path d="M3261 4558 c-5 -13 -17 -52 -27 -88 l-19 -65 -6 53 c-10 74 -16 79
-109 80 l-80 1 0 -69 c0 -54 3 -70 14 -70 11 0 16 15 18 52 2 41 7 54 21 56
14 3 17 -5 17 -52 0 -49 3 -56 19 -56 17 0 20 8 23 52 2 40 7 54 20 56 14 3
17 -6 20 -55 2 -44 6 -57 17 -55 8 2 18 -2 22 -9 15 -25 37 2 54 65 10 36 21
63 25 61 4 -3 10 -27 14 -54 6 -49 17 -61 57 -61 10 0 19 7 19 15 0 8 -9 15
-20 15 -17 0 -20 7 -20 40 0 33 3 40 20 40 11 0 20 7 20 15 0 8 -8 15 -19 15
-11 0 -21 9 -24 22 -5 18 -8 19 -21 8 -11 -8 -16 -9 -16 -1 0 20 -30 11 -39
-11z"/>
<path d="M3923 4561 c-3 -12 -9 -21 -14 -21 -5 0 -9 -7 -9 -15 0 -8 4 -15 9
-15 5 0 9 -15 9 -34 0 -58 10 -76 43 -76 19 0 29 5 29 15 0 8 -9 15 -20 15
-17 0 -20 7 -20 40 0 33 3 40 20 40 11 0 20 7 20 15 0 8 -9 15 -20 15 -11 0
-20 6 -20 14 0 24 -21 30 -27 7z"/>
<path d="M2567 4533 c-10 -9 -9 -131 1 -137 18 -11 31 12 34 59 2 38 7 51 21
53 14 3 17 -5 17 -51 0 -58 4 -69 26 -60 19 7 18 92 -2 121 -11 16 -25 22 -53
22 -21 0 -41 -3 -44 -7z"/>
<path d="M2700 4486 c0 -68 21 -95 70 -91 40 3 47 16 46 85 -1 42 -5 55 -16
55 -11 0 -16 -14 -18 -52 -3 -44 -6 -53 -22 -53 -22 0 -33 28 -28 73 2 24 -1
33 -14 35 -15 3 -18 -5 -18 -52z"/>
<path d="M2846 4524 c-9 -8 -16 -20 -16 -25 0 -14 39 -49 55 -49 8 0 15 -5 15
-11 0 -6 -14 -9 -32 -7 -42 4 -45 -21 -5 -35 21 -7 34 -5 53 8 35 22 29 56
-13 74 -41 18 -43 35 -3 28 25 -6 30 -3 30 13 0 16 -7 20 -34 20 -19 0 -42 -7
-50 -16z"/>
<path d="M2959 4538 c-1 -2 -3 -33 -4 -70 -2 -61 -1 -68 16 -68 17 0 19 8 19
70 0 56 -3 70 -15 70 -8 0 -16 -1 -16 -2z"/>
<path d="M3390 4471 c0 -56 3 -71 15 -71 12 0 15 13 15 60 0 33 0 63 1 68 0 4
-7 8 -15 10 -13 3 -16 -9 -16 -67z"/>
<path d="M3450 4470 c0 -38 4 -71 9 -74 15 -10 30 18 33 64 2 33 8 46 20 48
14 3 17 -6 20 -52 4 -69 22 -78 26 -14 5 84 52 91 52 7 0 -37 4 -49 15 -49 19
0 22 112 3 128 -7 5 -50 10 -95 11 l-83 0 0 -69z"/>
<path d="M3677 4522 c-19 -21 -22 -73 -7 -102 12 -23 52 -33 85 -20 38 14 26
35 -17 32 -20 -2 -39 1 -43 7 -4 7 5 11 22 12 54 2 58 4 61 30 6 52 -65 81
-101 41z m68 -22 c4 -6 -5 -10 -19 -10 -14 0 -26 5 -26 10 0 6 9 10 19 10 11
0 23 -4 26 -10z"/>
<path d="M3806 4524 c-9 -8 -16 -20 -16 -25 0 -14 39 -49 55 -49 8 0 15 -5 15
-11 0 -6 -14 -9 -32 -7 -41 4 -46 -22 -6 -36 20 -7 33 -5 53 8 36 23 30 57
-12 75 -41 18 -43 35 -3 28 25 -6 30 -3 30 13 0 16 -7 20 -34 20 -19 0 -42 -7
-50 -16z"/>
<path d="M4018 4528 c-39 -32 -28 -111 18 -128 34 -13 74 -3 74 20 0 15 -6 17
-40 13 -30 -4 -40 -2 -40 8 0 10 13 14 42 14 49 0 60 20 34 60 -18 28 -61 34
-88 13z m62 -28 c0 -5 -12 -10 -26 -10 -14 0 -23 4 -19 10 3 6 15 10 26 10 10
0 19 -4 19 -10z"/>
<path d="M4140 4445 c0 -78 3 -95 15 -95 9 0 15 9 15 25 0 18 4 23 15 19 43
-17 89 61 64 108 -17 32 -28 38 -71 38 l-38 0 0 -95z m75 25 c0 -25 -5 -36
-18 -38 -21 -4 -31 19 -23 54 10 40 41 28 41 -16z"/>
<path d="M957 4035 c-8 -18 11 -31 25 -17 11 11 3 32 -12 32 -4 0 -10 -7 -13
-15z"/>
<path d="M527 4033 c-7 -12 -57 -173 -57 -184 0 -5 6 -9 13 -9 12 0 67 155 67
188 0 13 -16 16 -23 5z"/>
<path d="M565 3992 c-3 -3 -5 -34 -5 -69 0 -49 3 -63 15 -63 11 0 15 11 15 39
0 52 8 71 31 71 16 0 19 -8 19 -55 0 -42 3 -55 15 -55 20 0 21 112 2 129 -13
10 -82 13 -92 3z"/>
<path d="M707 3993 c-11 -10 -8 -92 3 -114 8 -14 21 -19 55 -19 l45 0 0 70 c0
56 -3 70 -15 70 -11 0 -15 -13 -15 -54 0 -40 -4 -55 -16 -60 -27 -10 -34 3
-34 60 0 50 -7 64 -23 47z"/>
<path d="M846 3979 c-19 -28 -7 -54 29 -63 14 -4 25 -13 25 -22 0 -12 -7 -14
-36 -8 -29 5 -36 4 -32 -7 3 -9 20 -14 49 -14 42 0 44 1 44 30 0 24 -7 33 -35
47 -27 13 -31 18 -19 23 10 3 25 5 35 3 12 -2 19 3 19 12 0 26 -60 25 -79 -1z"/>
<path d="M960 3947 c0 -31 -3 -63 -6 -72 -5 -13 -2 -16 12 -13 16 3 19 12 19
67 0 43 -4 66 -12 69 -9 2 -13 -12 -13 -51z"/>
<path d="M1020 3928 c0 -54 3 -68 15 -68 11 0 15 12 15 50 0 36 4 52 15 57 24
8 29 -2 28 -57 -1 -37 2 -50 13 -50 14 0 18 16 15 52 -3 25 17 58 34 58 11 0
15 -13 15 -55 0 -42 3 -55 15 -55 19 0 22 112 3 128 -7 5 -48 9 -90 9 l-78 0
0 -69z"/>
<path d="M17376 3923 c-3 -3 -6 -16 -6 -27 0 -19 -5 -21 -45 -20 l-45 2 0 -69
c0 -54 3 -69 14 -69 11 0 16 15 18 52 3 47 6 52 31 59 l27 7 0 -59 c0 -46 3
-59 15 -59 12 0 15 17 15 89 0 83 -7 111 -24 94z"/>
<path d="M17516 3923 c-3 -3 -6 -15 -6 -25 0 -12 -7 -18 -24 -18 -47 0 -79
-59 -57 -106 13 -29 42 -42 82 -36 l29 4 0 89 c0 81 -7 109 -24 92z m-12 -89
c17 -43 -4 -80 -36 -63 -30 16 -21 79 12 79 10 0 21 -7 24 -16z"/>
<path d="M18227 3923 c-4 -3 -7 -15 -7 -25 0 -12 -7 -18 -23 -18 -32 0 -57
-30 -57 -69 0 -55 15 -71 65 -71 l45 0 0 95 c0 87 -5 107 -23 88z m-9 -106 c4
-36 -15 -62 -34 -46 -15 12 -19 61 -7 73 15 15 38 0 41 -27z"/>
<path d="M16927 3913 c-5 -9 -57 -178 -57 -187 0 -3 6 -6 14 -6 11 0 60 130
69 184 3 11 -20 19 -26 9z"/>
<path d="M17673 3885 c-6 -14 -7 -27 -2 -31 5 -3 9 -24 9 -48 0 -47 13 -66 47
-66 28 0 30 20 3 27 -16 4 -20 14 -20 44 0 32 3 39 20 39 11 0 20 7 20 15 0 8
-9 15 -20 15 -11 0 -20 7 -20 15 0 24 -24 17 -37 -10z"/>
<path d="M16957 3873 c-2 -4 3 -35 12 -68 19 -70 42 -84 58 -33 l11 33 7 -32
c5 -21 14 -33 24 -33 21 0 56 119 40 135 -12 12 -29 -10 -29 -37 0 -29 -17
-20 -23 12 -9 42 -34 39 -43 -6 -7 -38 -20 -35 -26 5 -3 24 -22 39 -31 24z"/>
<path d="M17157 3862 c-17 -19 -22 -67 -11 -97 4 -9 18 -21 31 -26 50 -19 90
31 73 92 -15 51 -61 66 -93 31z m63 -31 c11 -21 -2 -71 -18 -71 -25 0 -45 64
-25 83 12 13 32 7 43 -12z"/>
<path d="M17776 3858 c-30 -42 -18 -104 22 -119 68 -26 110 92 48 133 -21 15
-55 8 -70 -14z m68 -33 c6 -25 -7 -65 -22 -65 -25 0 -44 64 -25 83 15 16 41 6
47 -18z"/>
<path d="M18028 3869 c-22 -12 -33 -71 -19 -98 17 -32 47 -44 74 -30 30 16 37
28 37 64 0 60 -46 92 -92 64z m60 -52 c3 -27 -12 -57 -29 -57 -15 0 -31 42
-24 67 9 36 49 28 53 -10z"/>
<path d="M18296 3864 c-19 -19 -21 -84 -3 -106 11 -15 34 -22 65 -19 7 0 19
15 26 33 15 34 6 85 -16 100 -21 13 -55 9 -72 -8z m62 -53 c4 -38 -7 -54 -31
-45 -17 6 -24 63 -10 78 17 16 38 -1 41 -33z"/>
<path d="M18420 3808 c0 -54 3 -68 15 -68 11 0 15 12 15 50 0 37 4 52 16 57
23 9 33 -13 28 -63 -3 -34 0 -44 11 -44 8 0 16 6 16 13 1 6 2 26 4 43 3 38 12
54 31 54 10 0 14 -14 14 -55 0 -42 3 -55 15 -55 19 0 22 112 3 128 -7 5 -48 9
-90 9 l-78 0 0 -69z"/>
<path d="M17558 3712 c-10 -2 -18 -8 -18 -13 0 -5 32 -9 70 -9 40 0 70 4 70
10 0 6 -6 10 -12 11 -46 4 -96 4 -110 1z"/>
<path d="M17883 3713 c-34 -12 -6 -23 57 -23 75 0 100 19 28 21 -24 0 -50 2
-58 3 -8 2 -21 1 -27 -1z"/>
<path d="M21915 3906 c-29 -29 -75 -35 -75 -11 0 8 -7 15 -15 15 -8 0 -15 -6
-15 -14 0 -8 -5 -18 -10 -21 -7 -4 -9 2 -4 19 4 19 2 26 -8 26 -10 0 -24 -30
-41 -88 -31 -101 -32 -112 -14 -112 6 0 21 30 32 66 11 36 25 65 30 65 6 0 12
-20 15 -43 3 -24 9 -49 13 -55 12 -18 57 -16 57 2 0 8 -9 15 -20 15 -17 0 -20
7 -20 40 0 38 2 40 30 40 30 0 30 -1 30 -55 0 -42 3 -55 15 -55 12 0 15 13 15
55 0 41 4 55 14 55 26 0 28 20 4 30 l-23 9 23 7 c13 3 21 11 19 17 -7 21 -27
18 -52 -7z"/>
<path d="M3166 3495 c-3 -9 1 -18 10 -22 19 -7 28 2 21 22 -8 19 -23 19 -31 0z"/>
<path d="M3837 3503 c-4 -3 -7 -46 -7 -95 0 -72 3 -88 15 -88 12 0 15 17 15
95 0 87 -5 107 -23 88z"/>
<path d="M3894 3497 c-9 -24 1 -177 11 -177 6 0 11 40 13 95 2 62 -1 95 -8 95
-6 0 -13 -6 -16 -13z"/>
<path d="M2735 3488 c-23 -63 -55 -164 -55 -175 0 -8 7 -13 16 -11 10 2 26 35
45 93 16 50 29 93 29 98 0 12 -30 8 -35 -5z"/>
<path d="M3477 3493 c-2 -5 -15 -44 -28 -88 l-24 -80 -6 59 c-4 32 -12 62 -19
66 -7 4 -48 8 -91 8 l-79 1 0 -69 c0 -56 3 -70 15 -70 11 0 15 12 15 50 0 37
4 52 16 57 22 8 32 -11 29 -63 -2 -36 1 -44 16 -44 15 0 19 10 21 52 2 41 7
54 21 56 14 3 17 -5 17 -52 0 -49 3 -56 19 -56 11 0 21 -5 23 -12 10 -28 37 5
53 66 10 36 21 66 25 66 4 0 14 -26 22 -57 11 -46 18 -58 33 -58 12 0 22 9 26
25 l6 25 11 -27 c23 -57 46 -30 68 80 9 44 -19 44 -33 0 l-11 -33 -7 33 c-11
46 -40 43 -52 -5 l-10 -38 -8 38 c-6 31 -11 38 -26 34 -16 -4 -18 -1 -13 19 5
18 2 24 -9 24 -9 0 -18 -3 -20 -7z"/>
<path d="M2777 3453 c-4 -3 -7 -35 -7 -70 0 -56 2 -63 19 -63 17 0 20 8 23 52
2 41 7 54 21 56 14 3 17 -5 17 -52 0 -49 2 -56 20 -56 17 0 20 7 20 48 0 65
-20 92 -69 92 -21 0 -41 -3 -44 -7z"/>
<path d="M2910 3406 c0 -68 24 -100 68 -90 54 12 53 10 50 76 -2 50 -6 63 -20
66 -15 3 -18 -5 -18 -52 0 -49 -2 -56 -20 -56 -22 0 -33 30 -28 75 2 21 -2 30
-14 33 -16 3 -18 -4 -18 -52z"/>
<path d="M3056 3441 c-22 -24 -8 -56 29 -65 36 -9 31 -28 -7 -24 -41 4 -46
-22 -6 -36 20 -7 33 -5 53 8 36 23 30 57 -12 75 -41 18 -43 35 -3 28 25 -6 30
-3 30 13 0 27 -60 28 -84 1z"/>
<path d="M3170 3400 c0 -33 0 -63 -1 -67 0 -5 7 -9 15 -11 13 -3 16 9 16 67 0
56 -3 71 -15 71 -12 0 -15 -13 -15 -60z"/>
<path d="M3703 3453 c-7 -2 -13 -11 -13 -19 0 -12 8 -13 38 -8 25 4 34 3 27
-4 -5 -5 -19 -12 -29 -14 -26 -4 -40 -30 -33 -60 8 -29 28 -37 75 -30 32 4 32
5 32 61 0 31 -5 62 -12 69 -12 12 -62 15 -85 5z m61 -88 c-4 -8 -15 -15 -25
-15 -10 0 -19 7 -19 15 0 9 9 15 25 15 18 0 23 -4 19 -15z"/>
<path d="M3956 3444 c-9 -8 -16 -20 -16 -25 0 -14 39 -49 55 -49 8 0 15 -5 15
-11 0 -6 -14 -9 -32 -7 -41 4 -46 -22 -6 -36 20 -7 33 -5 53 8 36 23 30 57
-12 75 -41 18 -43 35 -3 28 25 -6 30 -3 30 13 0 16 -7 20 -34 20 -19 0 -42 -7
-50 -16z"/>
<path d="M12906 3173 c-3 -3 -6 -46 -6 -95 l0 -88 44 0 c50 0 76 24 76 70 0
36 -36 73 -66 67 -20 -3 -24 0 -24 19 0 24 -13 38 -24 27z m78 -89 c10 -25 7
-42 -10 -59 -12 -12 -19 -13 -30 -4 -26 21 -14 79 16 79 10 0 21 -7 24 -16z"/>
<path d="M13046 3173 c-3 -3 -6 -46 -6 -95 0 -72 3 -88 15 -88 12 0 15 17 15
89 0 83 -7 111 -24 94z"/>
<path d="M12837 3082 c-31 -101 -32 -112 -14 -112 8 0 24 35 40 89 31 103 32
111 14 111 -9 0 -24 -34 -40 -88z"/>
<path d="M13100 3079 c0 -73 11 -89 65 -89 l45 0 0 70 c0 56 -3 70 -15 70 -11
0 -15 -12 -15 -49 0 -49 -18 -79 -40 -66 -5 3 -10 31 -10 61 0 41 -4 54 -15
54 -11 0 -15 -12 -15 -51z"/>
<path d="M13256 3114 c-24 -23 -29 -59 -14 -91 11 -23 20 -29 56 -31 31 -2 44
1 48 13 9 22 -1 29 -24 16 -24 -13 -52 -5 -52 15 0 10 13 14 46 14 38 0 45 3
40 16 -3 9 -6 19 -6 24 0 17 -32 40 -55 40 -13 0 -31 -7 -39 -16z m64 -24 c0
-5 -12 -10 -26 -10 -14 0 -23 4 -19 10 3 6 15 10 26 10 10 0 19 -4 19 -10z"/>
<path d="M2927 2423 c-4 -3 -7 -12 -7 -20 0 -17 26 -17 33 1 8 21 -11 35 -26
19z"/>
<path d="M3407 2424 c-4 -4 -7 -46 -7 -94 l0 -87 36 -6 c46 -8 69 4 83 43 16
48 -12 100 -55 100 -16 0 -24 7 -26 22 -3 22 -19 33 -31 22z m78 -114 c0 -28
-4 -35 -20 -35 -13 0 -21 8 -23 23 -5 34 5 54 25 50 13 -2 18 -13 18 -38z"/>
<path d="M4007 2423 c-4 -3 -7 -46 -7 -95 0 -72 3 -88 15 -88 12 0 15 17 15
95 0 87 -5 107 -23 88z"/>
<path d="M2465 2335 c-14 -47 -28 -92 -31 -100 -4 -10 0 -15 13 -15 16 0 25
17 46 89 31 104 32 111 13 111 -10 0 -24 -30 -41 -85z"/>
<path d="M3207 2333 c-31 -100 -32 -113 -13 -113 8 0 24 33 41 88 34 109 33
105 14 109 -12 3 -22 -17 -42 -84z"/>
<path d="M3661 2396 c-9 -22 -14 -24 -50 -19 -47 6 -71 -8 -71 -43 0 -18 9
-27 35 -38 45 -19 45 -30 0 -23 -36 6 -49 -1 -37 -20 14 -21 52 -25 78 -8 35
22 28 56 -13 74 -41 18 -43 35 -3 29 17 -3 33 -1 36 4 12 18 24 -5 24 -46 0
-23 5 -47 12 -54 17 -17 58 -15 58 3 0 8 -9 15 -20 15 -17 0 -20 7 -20 40 0
33 3 40 20 40 11 0 20 7 20 15 0 8 -9 15 -20 15 -11 0 -20 6 -20 14 0 26 -20
28 -29 2z"/>
<path d="M2530 2310 c0 -54 3 -70 14 -70 11 0 16 15 18 53 3 45 6 52 26 55 21
3 22 0 22 -52 0 -43 3 -56 15 -56 12 0 15 13 15 58 0 32 -5 63 -12 70 -7 7
-31 12 -55 12 l-43 0 0 -70z"/>
<path d="M2670 2320 c0 -51 3 -62 23 -74 13 -8 35 -12 55 -9 l32 5 0 69 c0 55
-3 69 -15 69 -11 0 -15 -11 -15 -39 0 -52 -8 -71 -31 -71 -16 0 -19 8 -19 55
0 42 -3 55 -15 55 -12 0 -15 -13 -15 -60z"/>
<path d="M2811 2366 c-20 -23 -9 -50 26 -66 43 -20 42 -34 -2 -27 -29 5 -35 3
-35 -13 0 -23 40 -33 75 -20 39 15 32 60 -12 80 -42 19 -42 32 0 28 23 -2 32
1 32 12 0 21 -68 26 -84 6z"/>
<path d="M2920 2311 c0 -56 3 -71 15 -71 11 0 15 13 16 50 1 28 2 58 3 67 0
10 -7 19 -16 21 -16 3 -18 -5 -18 -67z"/>
<path d="M2980 2309 c0 -62 2 -70 18 -67 13 2 18 16 22 53 4 37 9 51 23 53 14
3 17 -5 17 -52 0 -43 3 -56 15 -56 11 0 15 11 15 43 0 50 12 72 34 64 12 -5
16 -20 16 -57 0 -38 4 -50 15 -50 19 0 22 112 3 128 -7 5 -50 10 -95 11 l-83
0 0 -70z"/>
<path d="M3282 2367 c-31 -37 -21 -106 18 -127 30 -16 59 -3 77 34 13 29 13
36 -1 69 -13 32 -19 37 -49 37 -19 0 -39 -6 -45 -13z m63 -57 c0 -28 -4 -35
-20 -35 -13 0 -21 8 -23 23 -5 34 5 54 25 50 13 -2 18 -13 18 -38z"/>
<path d="M3753 2373 c-7 -2 -13 -11 -13 -19 0 -11 9 -14 38 -9 l37 5 -33 -15
c-37 -17 -47 -35 -38 -69 7 -27 28 -35 74 -28 32 4 32 5 32 63 0 47 -4 60 -19
69 -20 10 -57 12 -78 3z m61 -88 c-4 -8 -15 -15 -25 -15 -10 0 -19 7 -19 15 0
9 9 15 25 15 18 0 23 -4 19 -15z"/>
<path d="M3885 2356 c-39 -58 10 -139 71 -119 44 15 38 39 -8 35 -33 -3 -38 0
-44 22 -9 36 12 59 47 52 32 -6 43 2 28 21 -20 23 -76 16 -94 -11z"/>
<path d="M4078 2370 c-39 -23 -29 -112 15 -129 33 -13 77 -2 77 19 0 13 -8 17
-36 16 -23 -1 -39 4 -42 12 -2 9 3 13 14 12 50 -6 74 0 74 18 0 49 -57 78
-102 52z m62 -30 c0 -5 -12 -10 -26 -10 -14 0 -23 4 -19 10 3 6 15 10 26 10
10 0 19 -4 19 -10z"/>
<path d="M4201 2366 c-20 -23 -9 -50 26 -66 43 -20 42 -34 -2 -27 -29 5 -35 3
-35 -13 0 -23 40 -33 75 -20 39 15 32 60 -12 80 -42 19 -42 32 0 28 23 -2 32
1 32 12 0 21 -68 26 -84 6z"/>
<path d="M6990 2336 l0 -94 33 -5 c65 -10 104 50 72 112 -12 24 -22 31 -45 31
-25 0 -30 4 -30 25 0 16 -6 25 -15 25 -12 0 -15 -17 -15 -94z m75 -26 c0 -25
-5 -36 -18 -38 -21 -4 -31 19 -23 54 10 40 41 28 41 -16z"/>
<path d="M7130 2336 c0 -80 3 -96 15 -96 13 0 15 15 13 92 -2 62 -7 93 -15 96
-10 3 -13 -20 -13 -92z"/>
<path d="M7540 2410 c0 -11 7 -20 15 -20 8 0 15 9 15 20 0 11 -7 20 -15 20 -8
0 -15 -9 -15 -20z"/>
<path d="M7737 2423 c-4 -3 -7 -12 -7 -20 0 -17 26 -17 33 1 8 21 -11 35 -26
19z"/>
<path d="M9077 2424 c-4 -4 -7 -47 -7 -96 0 -77 2 -88 18 -88 9 0 27 -3 39 -6
32 -9 63 27 63 74 0 43 -23 72 -58 72 -14 0 -22 7 -24 22 -3 22 -19 33 -31 22z
m79 -99 c8 -34 -2 -57 -23 -53 -19 3 -29 38 -19 64 9 23 35 16 42 -11z"/>
<path d="M9217 2424 c-4 -4 -7 -47 -7 -96 0 -80 2 -89 18 -86 15 3 17 15 17
92 0 83 -8 109 -28 90z"/>
<path d="M9277 2424 c-14 -14 -7 -35 11 -32 9 2 17 10 17 17 0 16 -18 25 -28
15z"/>
<path d="M9450 2335 c0 -76 3 -95 14 -95 11 0 16 15 18 53 3 44 6 52 23 52 17
0 20 -8 23 -52 2 -38 7 -53 18 -53 10 0 14 14 14 58 0 65 -11 82 -52 82 -23 0
-28 4 -28 25 0 16 -6 25 -15 25 -12 0 -15 -17 -15 -95z"/>
<path d="M6920 2325 c-16 -52 -30 -97 -30 -100 0 -3 8 -5 18 -5 13 0 24 21 45
90 31 103 32 110 12 110 -9 0 -24 -33 -45 -95z"/>
<path d="M7495 2408 c-2 -7 -15 -49 -29 -93 -31 -95 -31 -95 -8 -95 16 0 30
37 70 183 5 20 -26 25 -33 5z"/>
<path d="M7940 2410 c-11 -7 -14 -26 -12 -71 3 -78 14 -99 52 -99 34 0 41 19
10 27 -30 8 -29 78 1 86 23 6 17 27 -7 27 -8 0 -14 6 -14 14 0 20 -13 27 -30
16z"/>
<path d="M8240 2396 c-9 -24 0 -122 14 -144 9 -15 66 -16 66 -1 0 6 -9 13 -20
16 -16 4 -20 14 -20 44 0 27 4 39 14 39 24 0 30 21 8 27 -11 2 -22 13 -25 24
-7 26 -26 24 -37 -5z"/>
<path d="M8470 2410 c-11 -7 -14 -25 -13 -64 4 -81 16 -106 53 -106 34 0 41
19 10 27 -16 4 -20 14 -20 44 0 32 3 39 20 39 11 0 20 7 20 15 0 8 -9 15 -20
15 -11 0 -20 6 -20 14 0 20 -13 27 -30 16z"/>
<path d="M7190 2320 c0 -51 3 -62 23 -74 13 -8 35 -12 55 -9 l32 5 0 69 c0 55
-3 69 -15 69 -11 0 -15 -11 -15 -39 0 -52 -8 -71 -31 -71 -16 0 -19 8 -19 55
0 42 -3 55 -15 55 -12 0 -15 -13 -15 -60z"/>
<path d="M7336 2361 c-26 -29 -18 -89 15 -114 22 -15 33 -17 55 -10 44 15 38
39 -8 35 -27 -3 -38 0 -38 10 0 10 12 14 38 14 31 -1 38 3 40 21 2 12 -2 31
-8 42 -14 27 -70 28 -94 2z m69 -21 c4 -6 -5 -10 -19 -10 -14 0 -26 5 -26 10
0 6 9 10 19 10 11 0 23 -4 26 -10z"/>
<path d="M7540 2305 c0 -58 -4 -77 -15 -81 -19 -8 -20 -34 -1 -34 34 0 46 30
46 111 0 64 -3 79 -15 79 -12 0 -15 -15 -15 -75z"/>
<path d="M7606 2358 c-37 -53 -5 -127 57 -128 21 0 47 43 47 78 0 66 -70 99
-104 50z m69 -28 c9 -29 -3 -60 -25 -60 -22 0 -32 23 -24 56 8 29 40 32 49 4z"/>
<path d="M7730 2311 c0 -56 3 -71 15 -71 12 0 15 13 15 60 0 33 0 63 1 68 0 4
-7 8 -15 10 -13 3 -16 -9 -16 -67z"/>
<path d="M7790 2311 c0 -39 4 -72 9 -75 15 -10 30 18 33 64 2 33 8 46 21 48
14 3 17 -5 17 -51 0 -58 4 -69 26 -60 19 7 18 92 -2 121 -12 17 -25 22 -60 22
l-44 0 0 -69z"/>
<path d="M8131 2366 c-20 -23 -9 -50 26 -66 43 -20 42 -34 -2 -27 -29 5 -35 3
-35 -13 0 -22 39 -33 74 -20 20 7 26 17 26 39 0 25 -6 32 -34 42 -40 14 -38
32 2 27 19 -2 27 2 27 12 0 21 -68 26 -84 6z"/>
<path d="M8332 2368 c-22 -22 -13 -28 31 -22 31 4 38 3 27 -5 -8 -6 -23 -11
-32 -11 -18 0 -38 -28 -38 -54 0 -25 41 -44 83 -39 37 5 37 5 37 52 0 61 -21
91 -64 91 -17 0 -37 -5 -44 -12z m66 -80 c-7 -19 -38 -22 -38 -4 0 10 9 16 21
16 12 0 19 -5 17 -12z"/>
<path d="M8556 2358 c-24 -34 -20 -75 10 -104 18 -18 32 -24 47 -20 12 3 28 6
35 6 6 0 12 9 12 19 0 16 -5 18 -40 14 -33 -5 -40 -3 -40 11 0 9 3 15 8 15 4
-1 24 -1 46 0 36 1 38 2 31 28 -10 41 -24 53 -61 53 -23 0 -38 -7 -48 -22z
m69 -18 c4 -6 -5 -10 -20 -10 -15 0 -24 4 -20 10 3 6 12 10 20 10 8 0 17 -4
20 -10z"/>
<path d="M8797 2373 c-4 -3 -7 -39 -7 -80 l0 -73 -66 0 c-57 0 -65 -2 -62 -17
2 -14 15 -19 50 -21 68 -4 112 9 116 36 2 12 8 20 13 17 18 -12 51 8 64 38 14
33 5 84 -17 99 -16 9 -82 11 -91 1z m78 -63 c0 -28 -4 -35 -20 -35 -13 0 -21
8 -23 23 -5 34 5 54 25 50 13 -2 18 -13 18 -38z"/>
<path d="M8930 2326 c0 -43 5 -61 21 -77 11 -11 27 -18 36 -15 8 3 26 6 39 6
24 0 25 2 22 68 -2 52 -6 67 -18 67 -11 0 -16 -14 -18 -52 -3 -44 -6 -53 -22
-53 -16 0 -19 9 -22 52 -2 41 -7 54 -20 56 -15 3 -18 -5 -18 -52z"/>
<path d="M9277 2374 c-4 -4 -7 -36 -7 -71 0 -57 2 -63 20 -63 19 0 21 5 18 67
-3 61 -14 84 -31 67z"/>
<path d="M9342 2368 c-24 -24 -14 -56 23 -69 19 -7 35 -17 35 -22 0 -5 -16 -7
-35 -4 -29 5 -35 3 -35 -13 0 -26 46 -35 77 -15 34 22 27 56 -14 74 -18 8 -33
19 -33 24 0 4 15 7 33 5 23 -2 32 1 32 12 0 19 -65 26 -83 8z"/>
<path d="M9596 2358 c-23 -33 -20 -75 9 -103 13 -14 29 -25 34 -25 24 0 61 21
61 34 0 11 -9 13 -40 9 -25 -4 -40 -2 -40 5 0 13 32 24 51 17 8 -2 20 -1 27 4
11 7 11 15 -2 45 -13 32 -19 36 -50 36 -25 0 -39 -6 -50 -22z m69 -18 c4 -6
-5 -10 -20 -10 -15 0 -24 4 -20 10 3 6 12 10 20 10 8 0 17 -4 20 -10z"/>
<path d="M9727 2373 c-4 -3 -7 -35 -7 -70 0 -56 2 -63 19 -63 17 0 20 8 23 53
3 45 6 52 26 55 39 6 26 32 -16 32 -21 0 -42 -3 -45 -7z"/>
<path d="M7995 2210 c-13 -21 12 -31 71 -28 44 2 59 7 59 18 0 19 -119 28
-130 10z"/>
<path d="M12470 2423 c0 -5 -10 -9 -21 -9 -19 1 -26 -12 -51 -93 -16 -51 -27
-95 -24 -98 16 -16 35 14 56 86 13 45 25 79 28 77 2 -3 4 -36 3 -74 l-1 -69
36 -6 c45 -8 68 4 83 41 9 21 9 36 1 57 -13 34 -26 45 -57 45 -14 0 -23 7 -25
22 -3 21 -28 39 -28 21z m75 -113 c0 -28 -4 -35 -20 -35 -13 0 -21 8 -23 23
-5 34 5 54 25 50 13 -2 18 -13 18 -38z"/>
<path d="M12607 2424 c-4 -4 -7 -47 -7 -96 0 -82 1 -88 20 -88 20 0 21 5 18
92 -3 84 -12 111 -31 92z"/>
<path d="M13000 2421 c-21 -6 -29 -21 -52 -91 -32 -102 -33 -112 -11 -108 11
2 25 31 43 88 23 77 28 85 49 82 17 -3 22 1 19 14 -4 21 -15 24 -48 15z"/>
<path d="M13210 2410 c0 -11 7 -20 15 -20 8 0 15 9 15 20 0 11 -7 20 -15 20
-8 0 -15 -9 -15 -20z"/>
<path d="M13407 2390 c-9 -17 -11 -32 -6 -36 5 -3 9 -24 9 -48 0 -47 13 -66
46 -66 33 0 39 19 10 30 -21 8 -26 16 -26 44 0 28 4 35 23 38 27 4 26 22 -3
26 -11 2 -20 10 -20 17 0 27 -19 25 -33 -5z"/>
<path d="M13721 2397 c-9 -22 -14 -24 -53 -20 -73 8 -95 -47 -31 -77 43 -20
42 -34 -2 -27 -29 5 -35 3 -35 -13 0 -20 34 -32 68 -23 34 8 41 52 12 75 -12
10 -28 18 -36 18 -8 0 -14 5 -14 11 0 7 12 9 30 7 17 -3 33 -1 36 4 12 18 24
-5 24 -46 0 -47 13 -66 46 -66 33 0 39 19 10 30 -21 8 -26 16 -26 44 0 28 4
34 25 38 14 3 25 1 25 -4 0 -5 17 -6 38 -3 l37 6 -35 -18 c-71 -36 -39 -111
40 -94 35 7 35 7 34 59 -2 69 -16 84 -73 81 -71 -4 -91 0 -91 15 0 26 -20 28
-29 3z m157 -109 c-5 -15 -48 -24 -48 -10 0 14 12 22 33 22 10 0 17 -5 15 -12z"/>
<path d="M13940 2396 c-9 -24 0 -122 14 -144 9 -15 66 -16 66 -1 0 6 -9 13
-20 16 -11 3 -20 10 -21 17 0 6 -2 22 -3 34 -2 17 4 26 21 33 24 9 23 29 -1
29 -8 0 -16 9 -19 20 -7 27 -26 25 -37 -4z"/>
<path d="M12664 2365 c-8 -19 3 -106 14 -116 9 -9 28 -12 70 -10 l32 1 0 71
c0 62 -2 70 -17 67 -14 -2 -19 -15 -21 -56 -3 -43 -6 -52 -22 -52 -16 0 -19 9
-22 52 -3 51 -22 75 -34 43z"/>
<path d="M12817 2362 c-19 -21 -22 -73 -7 -102 12 -23 52 -33 85 -20 37 14 26
34 -20 34 -47 1 -60 23 -13 24 56 0 58 1 58 26 0 51 -69 76 -103 38z m68 -22
c4 -6 -5 -10 -19 -10 -14 0 -26 5 -26 10 0 6 9 10 19 10 11 0 23 -4 26 -10z"/>
<path d="M13017 2373 c-4 -3 -7 -39 -7 -79 0 -56 -3 -73 -16 -78 -17 -7 -10
-26 11 -26 7 0 21 7 29 16 21 21 23 174 3 174 -8 0 -17 -3 -20 -7z"/>
<path d="M13087 2362 c-24 -26 -22 -87 3 -112 58 -58 134 38 84 108 -19 27
-64 29 -87 4z m68 -32 c9 -29 -4 -60 -25 -60 -21 0 -34 31 -25 60 3 11 15 20
25 20 10 0 22 -9 25 -20z"/>
<path d="M13210 2310 c0 -56 3 -70 15 -70 12 0 15 14 15 70 0 56 -3 70 -15 70
-12 0 -15 -14 -15 -70z"/>
<path d="M13270 2310 c0 -56 3 -70 15 -70 11 0 15 11 15 39 0 52 8 71 31 71
16 0 19 -8 19 -55 0 -42 3 -55 15 -55 15 0 19 16 16 79 -1 47 -16 61 -67 61
l-44 0 0 -70z"/>
<path d="M14035 2356 c-39 -58 10 -139 71 -119 16 5 30 17 32 25 3 14 -4 15
-39 11 -33 -5 -41 -3 -37 8 2 7 20 15 38 16 46 4 51 12 35 51 -12 27 -19 32
-49 32 -27 0 -40 -6 -51 -24z m70 -16 c4 -6 -5 -10 -20 -10 -15 0 -24 4 -20
10 3 6 12 10 20 10 8 0 17 -4 20 -10z"/>
<path d="M14166 2358 c-16 -23 -6 -58 17 -58 7 0 22 -7 33 -15 18 -15 16 -15
-21 -13 -48 3 -56 -20 -12 -35 21 -7 34 -5 53 8 35 22 29 56 -13 74 -41 18
-43 35 -3 29 24 -4 30 -1 30 14 0 27 -64 25 -84 -4z"/>
<path d="M13470 2206 c0 -19 34 -28 91 -24 31 2 44 7 44 18 0 12 -15 16 -67
18 -56 2 -68 0 -68 -12z"/>
<path d="M16336 2421 c-3 -5 -14 -7 -24 -4 -16 4 -23 -10 -45 -85 -31 -103
-32 -112 -12 -112 9 0 24 31 44 93 l29 92 1 -81 1 -82 33 -5 c44 -7 81 20 85
62 5 45 -21 81 -58 81 -24 0 -29 4 -27 21 2 23 -17 37 -27 20z m79 -91 c9 -30
-4 -60 -26 -60 -15 0 -19 7 -19 33 0 19 3 37 7 40 13 13 32 7 38 -13z"/>
<path d="M16477 2423 c-4 -3 -7 -46 -7 -95 0 -72 3 -88 15 -88 12 0 15 17 15
95 0 87 -5 107 -23 88z"/>
<path d="M17106 2415 c-3 -9 -6 -52 -6 -95 l0 -77 36 -6 c20 -4 45 -2 54 3 26
14 41 65 29 98 -12 31 -26 42 -56 42 -14 0 -23 7 -25 22 -4 27 -23 35 -32 13z
m79 -105 c0 -28 -4 -35 -20 -35 -13 0 -21 8 -23 23 -5 34 5 54 25 50 13 -2 18
-13 18 -38z"/>
<path d="M18527 2423 c-4 -3 -7 -46 -7 -95 0 -80 2 -88 19 -88 11 0 26 -3 35
-6 22 -9 66 39 66 73 0 42 -26 73 -61 73 -24 0 -29 4 -29 25 0 24 -10 32 -23
18z m73 -93 c14 -27 4 -60 -20 -60 -21 0 -33 36 -19 62 13 24 26 23 39 -2z"/>
<path d="M18667 2423 c-4 -3 -7 -46 -7 -95 0 -72 3 -88 15 -88 12 0 15 17 15
95 0 87 -5 107 -23 88z"/>
<path d="M18727 2423 c-13 -12 -7 -33 8 -33 8 0 15 9 15 20 0 20 -11 26 -23
13z"/>
<path d="M18898 2398 c-6 -69 3 -158 17 -158 10 0 15 16 17 53 3 44 6 52 23
52 17 0 20 -8 23 -52 2 -38 7 -53 18 -53 10 0 14 13 14 51 0 66 -13 89 -50 89
-22 0 -29 5 -32 22 -5 35 -26 33 -30 -4z"/>
<path d="M16825 2363 c-47 -148 -46 -143 -26 -143 15 0 25 19 46 88 34 108 33
105 14 109 -11 3 -20 -12 -34 -54z"/>
<path d="M17377 2390 c-9 -17 -11 -32 -6 -36 5 -3 9 -24 9 -48 0 -23 5 -47 12
-54 17 -17 58 -15 58 3 0 8 -9 15 -20 15 -17 0 -20 7 -20 40 0 33 3 40 20 40
11 0 20 7 20 15 0 8 -9 15 -20 15 -11 0 -20 6 -20 14 0 28 -19 26 -33 -4z"/>
<path d="M17691 2397 c-9 -22 -14 -24 -53 -20 -73 8 -95 -47 -31 -77 43 -20
42 -34 -2 -27 -29 5 -35 3 -35 -13 0 -26 46 -35 77 -15 34 22 27 56 -14 74
-41 18 -43 35 -3 29 17 -3 33 -1 36 4 12 18 24 -5 24 -46 0 -47 13 -66 46 -66
33 0 39 19 10 30 -21 8 -26 16 -26 45 0 28 4 35 20 35 11 0 20 7 20 15 0 8 -9
15 -20 15 -11 0 -20 6 -20 14 0 26 -20 28 -29 3z"/>
<path d="M17907 2390 c-9 -17 -11 -32 -6 -36 5 -3 9 -24 9 -48 0 -47 13 -66
46 -66 33 0 39 19 10 30 -21 8 -26 16 -26 44 0 28 4 35 23 38 27 4 26 22 -3
26 -11 2 -20 10 -20 17 0 27 -19 25 -33 -5z"/>
<path d="M16530 2325 c0 -70 23 -98 72 -88 18 3 34 6 35 7 1 1 3 30 4 66 2 53
0 66 -14 68 -13 3 -17 -7 -19 -50 -3 -45 -6 -53 -23 -53 -17 0 -20 8 -23 53
-2 37 -7 52 -18 52 -10 0 -14 -14 -14 -55z"/>
<path d="M16682 2367 c-33 -39 -20 -111 24 -127 34 -13 74 -3 74 20 0 15 -6
17 -40 13 -31 -4 -40 -2 -40 9 0 10 8 14 25 13 61 -7 81 18 49 63 -17 25 -74
31 -92 9z m68 -27 c0 -5 -12 -10 -26 -10 -14 0 -23 4 -19 10 3 6 15 10 26 10
10 0 19 -4 19 -10z"/>
<path d="M16880 2310 c0 -56 3 -70 15 -70 11 0 15 11 15 39 0 55 8 71 36 71
15 0 24 6 24 15 0 11 -12 15 -45 15 l-45 0 0 -70z"/>
<path d="M16975 2349 c-21 -39 -11 -84 22 -106 22 -15 28 -15 51 -2 36 20 47
59 28 103 -13 32 -19 36 -50 36 -29 0 -38 -5 -51 -31z m70 -39 c0 -28 -4 -35
-20 -35 -13 0 -21 8 -23 23 -5 34 5 54 25 50 13 -2 18 -13 18 -38z"/>
<path d="M17257 2362 c-36 -40 -9 -132 38 -132 26 0 65 47 65 77 0 63 -65 97
-103 55z m62 -30 c14 -27 2 -62 -20 -62 -24 0 -33 21 -25 55 7 29 31 33 45 7z"/>
<path d="M17783 2373 c-7 -2 -13 -11 -13 -19 0 -12 9 -14 38 -9 l37 6 -35 -18
c-69 -35 -40 -108 38 -96 32 5 32 6 32 62 0 31 -5 62 -12 69 -12 12 -62 15
-85 5z m61 -88 c-4 -8 -15 -15 -25 -15 -10 0 -19 7 -19 15 0 9 9 15 25 15 18
0 23 -4 19 -15z"/>
<path d="M18006 2361 c-26 -29 -18 -89 15 -114 22 -15 33 -17 55 -10 44 15 38
39 -8 35 -28 -3 -38 0 -38 11 0 8 8 14 18 14 53 0 62 4 62 24 0 11 -5 29 -10
40 -14 26 -71 26 -94 0z m69 -21 c4 -6 -5 -10 -19 -10 -14 0 -26 5 -26 10 0 6
9 10 19 10 11 0 23 -4 26 -10z"/>
<path d="M18240 2300 l0 -79 -67 -3 c-53 -2 -68 -6 -68 -18 0 -12 15 -15 79
-14 79 2 102 12 91 43 -4 9 0 11 11 7 16 -6 54 9 66 28 13 19 9 71 -8 94 -12
17 -25 22 -60 22 l-44 0 0 -80z m85 30 c9 -30 -4 -60 -26 -60 -15 0 -19 7 -19
33 0 19 3 37 7 40 13 13 32 7 38 -13z"/>
<path d="M18380 2320 c0 -51 3 -62 23 -74 13 -8 35 -12 55 -9 l32 5 0 69 c0
54 -3 69 -14 69 -11 0 -16 -15 -18 -52 -3 -45 -6 -53 -23 -53 -17 0 -20 8 -23
53 -2 37 -7 52 -18 52 -11 0 -14 -14 -14 -60z"/>
<path d="M18720 2310 c0 -56 3 -70 15 -70 12 0 15 14 15 70 0 56 -3 70 -15 70
-12 0 -15 -14 -15 -70z"/>
<path d="M18786 2364 c-19 -18 -19 -20 -6 -44 5 -10 21 -21 35 -24 36 -9 31
-28 -7 -24 -42 4 -45 -21 -5 -35 21 -7 34 -5 53 8 35 22 29 56 -13 74 -41 18
-43 35 -3 28 25 -6 30 -3 30 13 0 16 -7 20 -34 20 -19 0 -42 -7 -50 -16z"/>
<path d="M19047 2362 c-19 -21 -22 -73 -7 -102 12 -23 52 -33 85 -20 36 14 27
34 -16 34 -19 1 -35 6 -36 11 -3 10 3 12 50 14 22 1 27 6 27 25 0 51 -69 76
-103 38z m68 -22 c4 -6 -5 -10 -19 -10 -14 0 -26 5 -26 10 0 6 9 10 19 10 11
0 23 -4 26 -10z"/>
<path d="M19170 2310 c0 -56 3 -70 15 -70 11 0 15 11 15 39 0 55 8 71 36 71
15 0 24 6 24 15 0 11 -12 15 -45 15 l-45 0 0 -70z"/>
<path d="M17442 2203 c2 -14 15 -19 58 -21 30 -1 61 2 69 7 27 18 -1 31 -65
31 -57 0 -65 -2 -62 -17z"/>
</g>
</svg>
